<svg xmlns="http://www.w3.org/2000/svg" width="201.329" height="72.805" viewBox="0 0 201.329 72.805">
  <g id="logo-sw" transform="translate(218.658 -169.234)">
    <path id="Union_2" data-name="Union 2" d="M-73.305-6.166c-4.694-.008-9.387-.025-14.081-.016a1.224,1.224,0,0,1-1.125-.578q-7.819-10.795-15.674-21.565-5.81-7.981-11.633-15.953c-.247-.337-.162-.535.055-.831q3.973-5.423,7.92-10.863c.454-.624.914-1.244,1.435-1.95L-68.5-6.165h-4.809Zm37.069-.026c-3.617-.017-7.234-.054-10.851-.067A.967.967,0,0,1-48-6.7q-5.453-7.7-10.94-15.365c-2.329-3.255-4.681-6.493-7.023-9.74-.04-.054-.083-.105-.205-.261l-9.361,12.882c-.7-.923-1.367-1.8-2.03-2.689-2.3-3.074-4.584-6.16-6.9-9.217a.894.894,0,0,1-.027-1.289q4.979-6.769,9.9-13.575,4.107-5.662,8.188-11.344c.1-.144.218-.279.342-.437L-28.625-6.19c-1.651,0-3.249,0-4.827,0C-34.385-6.186-35.31-6.188-36.236-6.192ZM-142.915-6.2h-.914l26.5-36.726c1.813,2.526,3.586,5,5.359,7.465,1.173,1.633,2.337,3.273,3.53,4.892a.582.582,0,0,1,.014.827q-5.679,7.868-11.333,15.754c-1.786,2.487-3.564,4.981-5.376,7.449a1.126,1.126,0,0,1-.807.327q-5.068.016-10.136.013Zm98.031-26.382,9.424-12.683L-26.1-32.219c.723-1,1.369-1.879,2-2.769q4.424-6.238,8.841-12.483c2.3-3.247,4.614-6.483,6.887-9.748A1.619,1.619,0,0,1-6.863-58c3.77.022,7.54.022,11.311.022h6.7L-25.949-6.249Z" transform="translate(-73.852 228)" fill="#136394" stroke="rgba(0,0,0,0)" stroke-miterlimit="10" stroke-width="1"/>
    <path id="Union_3" data-name="Union 3" d="M-143.793-40.116V-41.7H56.143v1.586Zm67.4-4.838a.73.73,0,0,1-.394-.512,10.21,10.21,0,0,1-.018-1.347,16.837,16.837,0,0,0,1.748.587,3.4,3.4,0,0,0,1.423.059,1.593,1.593,0,0,0,1.054-.666c.207-.511-.336-.781-.752-.97-.644-.292-1.318-.52-1.958-.82A2.241,2.241,0,0,1-76.831-50.9,2.3,2.3,0,0,1-75-52.879a7.714,7.714,0,0,1,4.293.057v1.506c-.8-.122-1.581-.248-2.363-.353a.892.892,0,0,0-.538.053,11.025,11.025,0,0,0-.929.69c.228.284.4.674.694.833.7.376,1.473.615,2.192.96a2.167,2.167,0,0,1,1.393,1.809,2.128,2.128,0,0,1-1.624,2.385,7.042,7.042,0,0,1-2.165.337A8.454,8.454,0,0,1-76.4-44.954Zm105.959.323c-.709,0-1.22-.381-1.246-.922s.545-.988,1.256-.994a1.107,1.107,0,0,1,1.239,1c-.023.523-.556.914-1.245.914Zm-157.389-.131a2.739,2.739,0,0,1-2.55-2.7c-.129-1.814-.03-3.643-.03-5.508,2.127-.251,2.126-.251,2.128,1.778,0,1.051-.018,2.1.014,3.155.05,1.67,1.161,1.965,2.46,1.713.706-.137,1.1-.774,1.111-1.7.021-1.44.031-2.882,0-4.321-.013-.537.136-.71.69-.7,1.5.034,1.5.008,1.5,1.527,0,1.1.017,2.2-.008,3.293a3.319,3.319,0,0,1-3.614,3.583l-.226,0A7.425,7.425,0,0,1-127.828-44.762Zm111.77-.023a1.072,1.072,0,0,1-.7-.385c-.535-.683-1.016-1.409-1.519-2.116a1.33,1.33,0,0,0-1.608-.57v3.029h-2.144v-8.217c.609.034,1.219.021,1.827.007a11.963,11.963,0,0,1,3.486.264,1.915,1.915,0,0,1,1.572,1.692,2.11,2.11,0,0,1-1.175,2.213c-.233.13-.479.234-.638.311l2.887,3.59c.425-.987.838-1.933,1.239-2.884q.987-2.336,1.959-4.677a.723.723,0,0,1,.769-.513c2.014-.016,2.011-.03,2.793,1.875Q-6.1-48.217-4.88-45.272c.059.142.1.293.164.5-.689,0-1.33.038-1.961-.023a.843.843,0,0,1-.523-.479c-.558-1.306-.545-1.311-1.976-1.312H-9.52c-1.526,0-1.509.007-2.134,1.381a.866.866,0,0,1-.629.419q-.954.03-1.909.03Q-15.125-44.757-16.058-44.785Zm5.441-3.308h2.371c-.384-1.058-.754-2.074-1.175-3.235Zm-9.3-2.592c-.031.426-.007.856-.007,1.373a11.024,11.024,0,0,0,1.2-.008c.569-.067,1.124-.279,1.225-.9.057-.349-.066-.993-.272-1.07a6.716,6.716,0,0,0-1.962-.3h0A3.256,3.256,0,0,0-19.921-50.685Zm-119.27,5.375c-.75-1.9-1.551-3.787-2.362-5.744v6.235h-1.9c-.014-.2-.04-.4-.04-.6,0-2.311.016-4.623-.015-6.934-.007-.555.164-.722.7-.688a19.585,19.585,0,0,0,1.991,0,.621.621,0,0,1,.7.471c.642,1.684,1.311,3.356,1.973,5.032.049.124.108.245.176.4.726-1.813,1.445-3.579,2.137-5.357a.709.709,0,0,1,.8-.548c.8.039,1.6.011,2.481.011v8.211h-2.069v-6.305c-.51,1.257-.984,2.412-1.448,3.57-.306.762-.618,1.523-.888,2.3a.629.629,0,0,1-.764.49,2.963,2.963,0,0,0-.686,0,1.164,1.164,0,0,1-.134.008C-138.882-44.758-139.045-44.941-139.19-45.311Zm76.978.518a.847.847,0,0,1-.527-.479c-.548-1.305-.536-1.31-1.965-1.313a1.31,1.31,0,0,1-.206,0c-1.228-.211-2.13.066-2.327,1.489a.552.552,0,0,1-.416.311c-.637.035-1.276.014-2.029.014.388-.937.742-1.812,1.109-2.679.72-1.7,1.455-3.395,2.162-5.1a.664.664,0,0,1,.7-.49c2.105-.043,2.092-.05,2.869,1.875.77,1.9,1.57,3.8,2.354,5.7.085.206.152.419.253.7-.393,0-.765.012-1.126.012C-61.652-44.758-61.933-44.765-62.213-44.792Zm-3.954-3.3h2.385l-1.185-3.259C-65.365-50.269-65.759-49.2-66.166-48.092ZM-97.72-44.759c-1.785-.025-1.8,0-2.456-1.635-.82-2.038-1.616-4.085-2.42-6.129-.049-.123-.076-.255-.126-.424a1.162,1.162,0,0,1,.207-.071c2-.141,2-.142,2.666,1.747.521,1.482,1.031,2.968,1.6,4.609.521-1.487.991-2.83,1.46-4.173.053-.15.1-.3.152-.455.654-1.887.654-1.887,2.854-1.687-.334.839-.656,1.65-.98,2.46-.686,1.719-1.387,3.433-2.049,5.162a.8.8,0,0,1-.877.6Zm114.34,0c-1.828-.011-1.835.008-2.523-1.721-.836-2.1-1.659-4.208-2.486-6.314a.585.585,0,0,1,0-.163c.061-.032.081-.051.1-.052,2.085-.142,2.083-.141,2.776,1.848.5,1.434,1.006,2.865,1.577,4.486l1.107-3.2c.3-.864.608-1.724.892-2.593a.678.678,0,0,1,.787-.571c.518.042,1.042.01,1.68.01-.416,1.059-.789,2.03-1.176,3-.628,1.568-1.286,3.125-1.885,4.7a.745.745,0,0,1-.834.566Zm-50.046-.035c-.179-.013-.374-.23-.5-.4-1.314-1.7-2.615-3.416-4.03-5.27v5.672H-40.01v-8.233a19.431,19.431,0,0,1,2.1.028c.229.024.457.344.631.57,1.143,1.489,2.271,2.989,3.406,4.483.091.12.2.224.413.453v-5.491h2v8.207c-.357,0-.714.008-1.068.008C-32.831-44.767-33.129-44.773-33.426-44.795Zm-46.1,0c-.175-.012-.372-.233-.5-.4-.5-.68-.972-1.386-1.474-2.067a1.38,1.38,0,0,0-1.6-.6v3.046h-2.133v-8.07c1.633,0,3.234-.094,4.816.03a1.984,1.984,0,0,1,2.033,1.793,2.257,2.257,0,0,1-1.558,2.4c-.1.047-.209.085-.257.1l3.029,3.792c-.5,0-.932.008-1.341.008C-78.861-44.767-79.192-44.772-79.523-44.793ZM-82.67-49.3c.75.018,1.459.036,1.847-.724a1.309,1.309,0,0,0-.086-1.178c-.566-.654-1.388-.446-2.171-.42v2.318H-83C-82.892-49.306-82.781-49.3-82.67-49.3Zm-37.713,4.532v-8.25c.616,0,1.246-.029,1.868.028.107.01.255.387.257.6.022,1.737.013,3.476.013,5.214v.88h3.517v1.494c-.167.014-.32.037-.474.037l-3.09,0Zm14.343-.028a4.113,4.113,0,0,1-.056-.481c0-2.379.005-4.757-.016-7.135,0-.475.136-.629.622-.63,1.564,0,1.564-.022,1.565,1.538q0,2.951,0,5.9v.807Zm47.093-.007v-8.119c.05-.031.086-.072.125-.076,2-.167,2-.167,2,1.82,0,1.6,0,3.2,0,4.894h3.5v1.48Zm29.721,0c0-.761,0-1.488,0-2.216,0-1.783.015-3.566-.006-5.349-.006-.492.12-.686.653-.674,1.6.033,3.2.012,4.859.012v1.511h-3.342a15.542,15.542,0,0,0,.025,1.694c.015.134.336.324.523.333.821.036,1.644.015,2.524.015v1.512h-3.08v3.162Zm-15.14-.005V-53h2.086v8.192Zm76.941-.009v-8.17h2.1v6.7h3.54v1.469Zm-8.781,0v-6.685c-.8,0-1.544-.018-2.287.005-.571.017-.482-.377-.457-.7s-.222-.837.463-.833c2.31.011,4.62.009,6.93.015a1.071,1.071,0,0,1,.229.064v1.434H25.961v6.7Zm-19.661,0V-52.9c.039-.035.072-.093.1-.092,1.573.035,3.155-.014,4.718.141a2.246,2.246,0,0,1,2.156,2.047,2.42,2.42,0,0,1-1.517,2.713,8.706,8.706,0,0,1-2.048.464,8.429,8.429,0,0,1-1.256.012v2.8ZM6.324-49.05c.885.014,1.812.215,2.333-.634a1.474,1.474,0,0,0-.045-1.326c-.438-.625-1.107-.6-1.789-.578-.167.005-.334.012-.5.008Zm-118.645,4.225v-6.658h-2.7v-1.464a.882.882,0,0,1,.244-.072c2.29-.007,4.578,0,6.868-.017.372,0,.557.109.525.509-.023.3,0,.592,0,.987H-110.1v6.715Zm152.942,0V-51.51H37.886a8.4,8.4,0,0,1,.018-1.165.526.526,0,0,1,.377-.34c2.378-.021,4.756-.014,7.193-.014v1.514H42.8v6.688Zm-133.264,0v-.637c0-2.287.022-4.575-.013-6.861-.01-.6.2-.729.747-.715,1.326.033,2.653.011,3.98.011.9,0,.9,0,.882.9,0,.178-.026.356-.049.64h-3.317v1.8h3.064v1.484h-3.064V-46.3H-86.9v1.473Zm139.521-.079v-7.987a49.342,49.342,0,0,1,4.985.032A3.535,3.535,0,0,1,55.373-49a3.988,3.988,0,0,1-3.6,4.06c-.613.06-1.231.079-1.852.079C48.918-44.859,47.905-44.907,46.878-44.907Zm2.146-6.473v5.071c1.463.091,2.842.127,3.712-1.256a2.863,2.863,0,0,0-.123-2.923,3.234,3.234,0,0,0-2.52-1.045A3.675,3.675,0,0,0,49.025-51.38Zm-192.8-5.013a4,4,0,0,1-.055-.427c-.006-.385,0-.77,0-1.181h200v1.607Z" transform="translate(-74 281.654)" fill="#fff" stroke="rgba(0,0,0,0)" stroke-miterlimit="10" stroke-width="1" opacity="0.8"/>
    <path id="Union_1" data-name="Union 1" d="M-113.324-16.135c-1.011,0-1.021-.032-1.021-1.058,0-2.542.009-5.083-.027-7.625-.009-.613.187-.777.783-.772,4.947.037,9.894.047,14.841.059.422,0,.846-.01,1.269-.02.47-.011.94-.022,1.41-.018,1.031.008,1.385.343,1.392,1.356q.027,3.429,0,6.859c-.005.917-.33,1.217-1.265,1.219q-4.329.009-8.658,0l-4.9,0Q-111.409-16.13-113.324-16.135ZM-125-27.83c.05-2.334.022-4.669.044-7,.011-1.1.432-1.616,1.509-1.608,5.9.047,11.807.139,17.711.212.382.005.5.187.5.559-.009,2.7-.011,5.4.009,8.1,0,.594-.378.518-.738.518q-4.567,0-9.136,0c-3.022,0-6.044-.012-9.067.01h-.031C-124.771-27.039-125.019-27.166-125-27.83Zm11.43-9.8c-.671,0-.855-.19-.846-.849q.053-3.881,0-7.763c-.008-.608.267-.765.762-.775q1.374-.027,2.748-.031,3.093-.007,6.184,0v0q4.192,0,8.383,0c1.27,0,1.583.312,1.611,1.57q.069,3.116.139,6.233A1.349,1.349,0,0,1-95.6-37.792a4.923,4.923,0,0,1-1.417.178C-102.536-37.615-108.056-37.643-113.575-37.629Zm-22.024-.917c.044-2.585.032-5.171.009-7.756,0-.56.155-.747.734-.743,3.066.027,6.133.013,9.2.013v.009c3.066,0,6.133.011,9.2-.009.559,0,.743.151.73.74-.052,2.378-.038,4.757-.068,7.137-.013.945-.447,1.364-1.463,1.386-2.013.043-4.028.061-6.042.069-3.8.014-7.6,0-11.4.032h-.035C-135.372-37.668-135.61-37.841-135.6-38.546ZM-124.98-48.5V-50.6c0-2.222.011-4.443-.018-6.665-.007-.531.18-.649.677-.648q9.175.02,18.348,0c.434,0,.691.067.686.584-.028,2.632-.023,5.266-.068,7.9a.939.939,0,0,1-.464.658,2.552,2.552,0,0,1-1.116.273q-8.8.039-17.591.038C-124.639-48.46-124.752-48.481-124.98-48.5Zm-18.834-.234v-1.413c0-2.31.026-4.622-.014-6.932-.012-.666.21-.895.848-.891,2.037.01,4.072-.013,6.109-.016q4.531-.009,9.061-.01c1.4,0,1.7.3,1.7,1.687q-.011,3.4-.023,6.795c0,.247-.022.494-.034.78Z" transform="translate(76.688 237.913)" fill="#e8391b" stroke="rgba(0,0,0,0)" stroke-miterlimit="10" stroke-width="1"/>
  </g>
</svg>
