<svg xmlns="http://www.w3.org/2000/svg" xmlns:xlink="http://www.w3.org/1999/xlink" width="392.291" height="357.455" viewBox="0 0 392.291 357.455">
  <defs>
    <linearGradient id="linear-gradient" x1="-4.811" y1="0.113" x2="-4.811" y2="0.826" gradientUnits="objectBoundingBox">
      <stop offset="0" stop-color="#136294"/>
      <stop offset="1" stop-color="#052234"/>
    </linearGradient>
    <linearGradient id="linear-gradient-3" y1="0.5" x2="1" y2="0.5" gradientUnits="objectBoundingBox">
      <stop offset="0" stop-color="#5acfd9"/>
      <stop offset="1" stop-color="#00cfe2"/>
    </linearGradient>
    <linearGradient id="linear-gradient-5" x1="8.072" y1="4.278" x2="-6.982" y2="-3.233" gradientUnits="objectBoundingBox">
      <stop offset="0" stop-color="#c6cde7"/>
      <stop offset="1" stop-color="#e3e6f3"/>
    </linearGradient>
    <linearGradient id="linear-gradient-6" x1="0.594" y1="-0.066" x2="0.437" y2="1.065" gradientUnits="objectBoundingBox">
      <stop offset="0" stop-color="#b8cfe2"/>
      <stop offset="0.096" stop-color="#b2c5df"/>
      <stop offset="0.258" stop-color="#b5cae1"/>
      <stop offset="0.466" stop-color="#b6bfe1" stop-opacity="0.635"/>
      <stop offset="0.712" stop-color="#c4cce7" stop-opacity="0.361"/>
      <stop offset="0.988" stop-color="#d7dcee" stop-opacity="0.016"/>
      <stop offset="1" stop-color="#d8ddef" stop-opacity="0"/>
    </linearGradient>
    <linearGradient id="linear-gradient-7" x1="1.357" y1="7.252" x2="-1.19" y2="-12.814" xlink:href="#linear-gradient-5"/>
    <linearGradient id="linear-gradient-8" x1="2.114" y1="9.946" x2="-2.321" y2="-16.011" xlink:href="#linear-gradient-5"/>
    <linearGradient id="linear-gradient-9" x1="5.918" y1="3.204" x2="-9.136" y2="-4.308" xlink:href="#linear-gradient-5"/>
    <linearGradient id="linear-gradient-10" x1="5.849" y1="3.169" x2="-9.206" y2="-4.343" xlink:href="#linear-gradient-5"/>
    <linearGradient id="linear-gradient-11" x1="10.861" y1="5.881" x2="-8.8" y2="-4.295" xlink:href="#linear-gradient-5"/>
    <linearGradient id="linear-gradient-12" x1="3.951" y1="49.506" x2="-0.693" y2="-16.455" xlink:href="#linear-gradient-5"/>
    <linearGradient id="linear-gradient-13" x1="3.207" y1="38.936" x2="-1.438" y2="-27.024" xlink:href="#linear-gradient-5"/>
    <linearGradient id="linear-gradient-14" x1="2.489" y1="6.962" x2="0.063" y2="-0.92" xlink:href="#linear-gradient-5"/>
    <linearGradient id="linear-gradient-15" x1="2.301" y1="6.349" x2="-0.126" y2="-1.533" xlink:href="#linear-gradient-5"/>
    <linearGradient id="linear-gradient-21" x1="10.991" y1="4.312" x2="-10.258" y2="-3.409" xlink:href="#linear-gradient-5"/>
    <clipPath id="clip-path">
      <path id="Path_532" data-name="Path 532" d="M508.71,331.732l.112-39.853,35.2,20.323-.112,39.853Z" fill="none"/>
    </clipPath>
    <linearGradient id="linear-gradient-22" x1="0.022" y1="0.994" x2="0.82" y2="0.172" gradientUnits="objectBoundingBox">
      <stop offset="0" stop-color="#a3afd9"/>
      <stop offset="0.096" stop-color="#a5b1d9" stop-opacity="0.957"/>
      <stop offset="0.258" stop-color="#abb6dc" stop-opacity="0.835"/>
      <stop offset="0.466" stop-color="#b6bfe1" stop-opacity="0.635"/>
      <stop offset="0.712" stop-color="#c4cce7" stop-opacity="0.361"/>
      <stop offset="0.988" stop-color="#d7dcee" stop-opacity="0.016"/>
      <stop offset="1" stop-color="#d8ddef" stop-opacity="0"/>
    </linearGradient>
  </defs>
  <g id="mission" transform="translate(-325.73 -70.137)">
    <ellipse id="Ellipse_2" data-name="Ellipse 2" cx="177.358" cy="93.128" rx="177.358" ry="93.128" transform="translate(325.73 222.684)" fill="#f5f7ff"/>
    <g id="Group_136" data-name="Group 136">
      <path id="Path_359" data-name="Path 359" d="M413.682,195.262h0a6.26,6.26,0,0,0,3.841-7.976l-8.081-23.1a6.26,6.26,0,0,0-7.977-3.842h0a6.261,6.261,0,0,0-3.841,7.977l8.081,23.1a6.261,6.261,0,0,0,7.977,3.841Z" fill="#ecd4c7"/>
      <path id="Path_360" data-name="Path 360" d="M401.907,185.782l14.977-5.24-6.1-17.444a7.933,7.933,0,0,0-10.108-4.868h0a7.934,7.934,0,0,0-4.868,10.108Z" fill="#1fa7b2"/>
      <path id="Path_361" data-name="Path 361" d="M397.455,277.438s-.681,7.9.054,8.993c.505.751,17.13,8.648,18.28,7.348,1.34-1.515-11.027-15.069-11.027-15.069Z" fill="#00062a"/>
      <path id="Path_362" data-name="Path 362" d="M393.48,200.878l.033.986.5,14.478.214,6.286.362,10.46,1.577,45.784a5.181,5.181,0,0,0,3.583,2.137c2.572.567,5.834.172,7.683-1.759l1.158-59.7.1-4.93.074-4.026.279-14.331Z" fill="#052234"/>
      <path id="Path_363" data-name="Path 363" d="M397.687,219.029l2.063,61.98c2.572.567,5.834.172,7.683-1.759l1.158-59.7.173-8.956Z" fill="url(#linear-gradient)"/>
      <path id="Path_364" data-name="Path 364" d="M380.276,214A53.655,53.655,0,0,0,394,216.342h.016c.682.025,1.348.041,2.005.041h.009a47.892,47.892,0,0,0,12.662-1.758l.074-4.026.131-6.886H380.506Z" fill="#136294"/>
      <path id="Path_365" data-name="Path 365" d="M382.107,276.785l-2.356,11.178a20.47,20.47,0,0,0-.457,5.417,24,24,0,0,0,3.1,10.458h0a.886.886,0,0,0,1.475.1l.124-.164a24.011,24.011,0,0,0,4.654-11.149,20.09,20.09,0,0,0-.03-5.4l-1.353-10.433Z" fill="#00062a"/>
      <path id="Path_366" data-name="Path 366" d="M378.739,282.718c2.161,3.689,9.425,3.977,11.512,1.142l4.339-50.772.895-10.435.534-6.27,1.2-14.051-3.706-.468-12.933-1.635L380.28,214l-.115,5.029Z" fill="url(#linear-gradient)"/>
      <g id="Group_125" data-name="Group 125">
        <path id="Path_367" data-name="Path 367" d="M378.854,165.649l1.353,43.058c15.406,6.511,30.812-5.876,30.812-5.876l-4.182-18.846,3.545-17.75.452-2.282c-1.044-8.381-15.15-9.656-15.15-9.656s-9.755,3.1-13.54,6.307C381.159,161.44,378.854,164.278,378.854,165.649Z" fill="url(#linear-gradient-3)"/>
      </g>
      <g id="Group_126" data-name="Group 126">
        <path id="Path_368" data-name="Path 368" d="M372.614,182.63l14.932,5.363,6.247-17.393a7.933,7.933,0,0,0-4.785-10.148h0a7.935,7.935,0,0,0-10.148,4.785Z" fill="url(#linear-gradient-3)"/>
      </g>
      <path id="Path_369" data-name="Path 369" d="M373.628,184.74c.05.041.1.074.157.115a16.9,16.9,0,0,0,5.176,2.309,15.734,15.734,0,0,0,5.925.649,3.64,3.64,0,0,0,1.273-.361,1.1,1.1,0,0,0,.567-.633.927.927,0,0,0-.1-.682,3.259,3.259,0,0,0-.985-1.142,15.953,15.953,0,0,0-5.4-2.465,17.328,17.328,0,0,0-5.366-.715c-.164.008-.32.025-.468.041-1.068.123-1.775.46-1.931,1.011S372.766,184.083,373.628,184.74Z" fill="#00062a"/>
      <path id="Path_370" data-name="Path 370" d="M375.9,197.517a6.259,6.259,0,0,0,8-3.779l2.259-6.286.468-1.315a3.259,3.259,0,0,0-.985-1.142,15.953,15.953,0,0,0-5.4-2.465,17.327,17.327,0,0,0-5.366-.715l-1.092,3.04-1.668,4.651a6.269,6.269,0,0,0,3.784,8.011Z" fill="#ecd4c7"/>
      <line id="Line_7" data-name="Line 7" y1="17.39" x2="4.521" transform="translate(386.653 170.708)" fill="none" stroke="#138a94" stroke-miterlimit="10" stroke-width="1"/>
      <path id="Path_371" data-name="Path 371" d="M407.719,191.562,379,197.861a6.344,6.344,0,0,1-7.223-6.037h0a6.344,6.344,0,0,1,6.332-6.588l33.572-.035Z" fill="#ecd4c7"/>
      <path id="Path_372" data-name="Path 372" d="M421.589,169.574c1.187-2.384,3.259-4.757,4.2-5.067.57-.188,3.18,1.2,3.18,1.2Z" fill="#d8a7a2"/>
      <path id="Path_373" data-name="Path 373" d="M431.989,172.528,416.8,193.866a6.344,6.344,0,0,1-9.406.376h0a6.343,6.343,0,0,1,.269-9.133l20.675-18.775Z" fill="#d8a7a2"/>
      <g id="Group_127" data-name="Group 127">
        <path id="Path_374" data-name="Path 374" d="M432.19,163.341l-14.432,8.339a2.219,2.219,0,0,0-.8.793L402.17,197.532a2.216,2.216,0,0,0,.4,2.752h0l16.585-9.371,15.76-27.176-.111-.1A2.218,2.218,0,0,0,432.19,163.341Z" fill="#fff"/>
        <path id="Path_375" data-name="Path 375" d="M425.807,179.152s5.3-2.652,5.923-3.537a29.763,29.763,0,0,0,2.741-5.434c.177-.931-1.679-4.462-1.679-4.462L425,179.152Z" fill="#d8a7a2"/>
        <path id="Path_376" data-name="Path 376" d="M434.917,163.737l-16.353,9.449-15.992,27.1,16.585-9.371Z" fill="#136294"/>
      </g>
      <path id="Path_377" data-name="Path 377" d="M402.572,186.5c3.09-4.448,6.88-4.674,10.754-6.749l-3.779,6.4Z" fill="#ecd4c7"/>
      <path id="Path_378" data-name="Path 378" d="M403.46,186.111c6.564-.3,11.158-1.265,13.791-2.547a.535.535,0,0,1,.761.536,12.683,12.683,0,0,1-1.046,4.111.55.55,0,0,1-.205.23,43.751,43.751,0,0,1-5.076,2.863,62.155,62.155,0,0,1-7.2.968Z" fill="#ecd4c7"/>
      <path id="Path_379" data-name="Path 379" d="M416.975,181.183c-4.239,2.663-10.914,3.712-10.914,3.712l.586,2.032s6.945-1.389,11.1-4.662a.666.666,0,0,0,.235-.65h0a.665.665,0,0,0-1.007-.432Z" fill="#ecd4c7"/>
      <g id="Group_134" data-name="Group 134">
        <path id="Path_380" data-name="Path 380" d="M391.931,137.746c.611,4.176,10.9,12.941,10.9,12.941s9.976-9.016,8.685-15.809c-.788-4.147-5.3-5.267-10.709-4.475S391.319,133.569,391.931,137.746Z" fill="#136294"/>
        <path id="Path_381" data-name="Path 381" d="M388,142.288c.724,3.352,6.749,9.324,6.749,9.324s6.114-8.6,5.389-11.948A6.209,6.209,0,1,0,388,142.288Z" fill="#136294"/>
        <g id="Group_129" data-name="Group 129">
          <g id="Group_128" data-name="Group 128">
            <path id="Path_382" data-name="Path 382" d="M397.685,163.223h0a4.8,4.8,0,0,1-4.8-4.8v-10.5h9.6v10.5A4.8,4.8,0,0,1,397.685,163.223Z" fill="#ecd4c7"/>
          </g>
        </g>
        <g id="Group_131" data-name="Group 131">
          <g id="Group_130" data-name="Group 130">
            <path id="Path_383" data-name="Path 383" d="M402.485,157.956h0a7.3,7.3,0,0,1-7.3-7.3v-2.3h7.3Z" fill="#d8a7a2"/>
          </g>
        </g>
        <g id="Group_133" data-name="Group 133">
          <g id="Group_132" data-name="Group 132">
            <path id="Path_384" data-name="Path 384" d="M392.884,143.174v2.984A9.845,9.845,0,0,0,402.729,156h1.394c4.069,0,7.368-3.627,7.368-8.1v-4.727a9.969,9.969,0,0,0-.1-1.449,10.589,10.589,0,0,0-.731-2.755,9.294,9.294,0,0,0-8.477-6.02c-.236,0-.472.008-.7.025a9.394,9.394,0,0,0-7.776,5.995,10.954,10.954,0,0,0-.724,2.755,10.127,10.127,0,0,0-.1,1.45Z" fill="#ecd4c7"/>
          </g>
        </g>
        <path id="Path_385" data-name="Path 385" d="M393.98,146.314c4.324.336,7.338-2.11,6.754-5.387s-5.4-7.872-8.539-4.571S390.871,144.876,393.98,146.314Z" fill="#136294"/>
        <path id="Path_386" data-name="Path 386" d="M395.658,136.433c.5,3.379,4.3,5.619,8.5,5a11.33,11.33,0,0,0,6.71-3.846s1.323-6.125-7.8-6.511C398.828,130.9,395.163,133.055,395.658,136.433Z" fill="#136294"/>
        <path id="Path_387" data-name="Path 387" d="M407.389,144.079a3.383,3.383,0,0,0,1.3,3.3c1.48,1.086,1.613,2.626-.529,3.3" fill="none" stroke="#d8a7a2" stroke-miterlimit="10" stroke-width="1"/>
        <path id="Path_388" data-name="Path 388" d="M403.07,146.65c0,.76.33,1.377.737,1.377s.736-.617.736-1.377-.33-1.378-.736-1.378S403.07,145.889,403.07,146.65Z" fill="#136294"/>
        <path id="Path_389" data-name="Path 389" d="M408.564,145.272c0,.761.33,1.378.737,1.378s.736-.617.736-1.378-.329-1.377-.736-1.377S408.564,144.512,408.564,145.272Z" fill="#136294"/>
        <path id="Path_390" data-name="Path 390" d="M408.278,151.6a11.32,11.32,0,0,1-3.87.169C405.352,154.036,407.812,153.624,408.278,151.6Z" fill="#fff"/>
      </g>
      <g id="Group_135" data-name="Group 135">
        <path id="Path_391" data-name="Path 391" d="M397.221,148.471c-2.04-3.825-3.879-4.084-5.362-3.3-1.843.97-1.924,4.487.159,6.107a3.218,3.218,0,0,0,5.02-1.973Z" fill="#ecd4c7"/>
        <rect id="Rectangle_3" data-name="Rectangle 3" width="0.689" height="2.236" transform="translate(392.941 148.436) rotate(-45.486)" fill="#d8a7a2"/>
      </g>
      <path id="Path_392" data-name="Path 392" d="M397.845,143.206l-.1,6.216-1.1-.056-1.375-5.6Z" fill="#136294"/>
      <path id="Path_393" data-name="Path 393" d="M409.071,142.185c-1.938-.237-1.911-1.286-.4-1.328C410.3,140.812,411.483,142.481,409.071,142.185Z" fill="#136294"/>
      <path id="Path_394" data-name="Path 394" d="M402.9,143.514c-1.824.7-2.291-.245-.974-.988C403.341,141.727,405.17,142.648,402.9,143.514Z" fill="#136294"/>
    </g>
    <g id="Group_172" data-name="Group 172">
      <path id="Path_395" data-name="Path 395" d="M665.239,176.918l-7.683,1.943-37.989-33.224,8.711-2.283Z" fill="#136294" stroke="#136294" stroke-linecap="round" stroke-linejoin="round" stroke-width="1"/>
      <g id="Group_137" data-name="Group 137">
        <path id="Path_396" data-name="Path 396" d="M674.094,224.439v45.852L610.071,233.7V187.85Z" fill="#136294"/>
        <path id="Path_397" data-name="Path 397" d="M674.094,224.439l2.856-1.713L612.925,186.09l-2.854,1.76Z" fill="#d1ebff" stroke="#b7dcf8" stroke-linecap="round" stroke-linejoin="round" stroke-width="1"/>
        <path id="Path_398" data-name="Path 398" d="M674.094,224.439v45.852l2.856-1.713V222.726Z" stroke="#c7ccee" stroke-linecap="round" stroke-linejoin="round" stroke-width="1" fill="url(#linear-gradient-5)"/>
      </g>
      <path id="Path_399" data-name="Path 399" d="M599.539,297.319l-93.528-53.962L464.6,266.331l93.528,53.962Z" fill="#d1ebff" stroke="#b7dcf8" stroke-linecap="round" stroke-linejoin="round" stroke-width="1"/>
      <path id="Path_400" data-name="Path 400" d="M575.96,206.066l-89.87-51.3V259.2l89.87,51.3Z" fill="#fff" stroke="#b7dcf8" stroke-linecap="round" stroke-linejoin="round" stroke-width="1"/>
      <g id="Group_138" data-name="Group 138">
        <path id="Path_401" data-name="Path 401" d="M541.334,231.689v59.289l-29.924-17.26V214.429Z" fill="#d1ebff" stroke="#b7dcf8" stroke-linecap="round" stroke-linejoin="round" stroke-width="1"/>
        <path id="Path_402" data-name="Path 402" d="M541.334,231.689V286.41L511.41,269.15V214.429Z" fill="#136294"/>
        <path id="Path_403" data-name="Path 403" d="M511.409,214.368v59.289l3.693-2.215V216.559Z" fill="#d1ebff" stroke="#b7dcf8" stroke-linecap="round" stroke-linejoin="round" stroke-width="1"/>
      </g>
      <path id="Path_404" data-name="Path 404" d="M657.559,178.859v85.476l-81.6,46.162V204.672l30.683-52.365,7.365-12.562Z" fill="#d1ebff" stroke="#b7dcf8" stroke-linecap="round" stroke-linejoin="round" stroke-width="1"/>
      <path id="Path_405" data-name="Path 405" d="M657.559,178.859v16.3l-50.914-44.073,7.365-12.562Z" fill="url(#linear-gradient-6)"/>
      <g id="Group_139" data-name="Group 139">
        <path id="Path_406" data-name="Path 406" d="M462.947,234.325V280.2l23.143-13.33V221Z" fill="#d1ebff" stroke="#b7dcf8" stroke-linecap="round" stroke-linejoin="round" stroke-width="1"/>
        <path id="Path_407" data-name="Path 407" d="M462.947,234.344l-2.877-1.684,26.02-15V221Z" fill="#d1ebff" stroke="#b7dcf8" stroke-linecap="round" stroke-linejoin="round" stroke-width="1"/>
      </g>
      <g id="Group_140" data-name="Group 140">
        <path id="Path_408" data-name="Path 408" d="M457.146,234.357l28.7,16.736V295.7l-28.7-15.493Z" fill="#fff" stroke="#c7ccee" stroke-linecap="round" stroke-linejoin="round" stroke-width="1"/>
        <path id="Path_409" data-name="Path 409" d="M485.846,251.092l2.854-1.76-28.621-16.675-2.934,1.7Z" fill="#d1ebff" stroke="#b7dcf8" stroke-linecap="round" stroke-linejoin="round" stroke-width="1"/>
        <path id="Path_410" data-name="Path 410" d="M485.844,251.092V295.7l2.856-1.726V249.332Z" fill="#d1ebff" stroke="#b7dcf8" stroke-linecap="round" stroke-linejoin="round" stroke-width="1"/>
      </g>
      <g id="Group_143" data-name="Group 143">
        <g id="Group_141" data-name="Group 141">
          <path id="Path_411" data-name="Path 411" d="M471.844,305.936,519.627,333.5v-8.345l-47.782-27.673Z" fill="#136294" stroke="#136294" stroke-linecap="round" stroke-linejoin="round" stroke-width="1"/>
          <path id="Path_412" data-name="Path 412" d="M536.509,323.7l-16.882,9.8v-8.345l16.882-9.46Z" stroke="#c7ccee" stroke-linecap="round" stroke-linejoin="round" stroke-width="1" fill="url(#linear-gradient-7)"/>
          <path id="Path_413" data-name="Path 413" d="M471.844,297.479l47.782,27.673,16.882-9.46-47.573-27.547Z" fill="#d1ebff" stroke="#b7dcf8" stroke-linecap="round" stroke-linejoin="round" stroke-width="1"/>
        </g>
        <g id="Group_142" data-name="Group 142">
          <path id="Path_414" data-name="Path 414" d="M479.036,293.556l47.782,27.561v-8.345L479.036,285.1Z" fill="#136294" stroke="#136294" stroke-linecap="round" stroke-linejoin="round" stroke-width="1"/>
          <path id="Path_415" data-name="Path 415" d="M536.511,307.348v8.369l-9.7,5.4v-8.341l9.686-5.423Z" stroke="#c7ccee" stroke-linecap="round" stroke-linejoin="round" stroke-width="1" fill="url(#linear-gradient-8)"/>
          <path id="Path_416" data-name="Path 416" d="M536.5,307.348l-9.686,5.423L479.133,285.15l9.8-5.349Z" fill="#d1ebff" stroke="#b7dcf8" stroke-linecap="round" stroke-linejoin="round" stroke-width="1"/>
        </g>
      </g>
      <path id="Path_417" data-name="Path 417" d="M557.478,290.324v45.853l2.856-1.713V288.611Z" stroke="#c7ccee" stroke-linecap="round" stroke-linejoin="round" stroke-width="1" fill="url(#linear-gradient-9)"/>
      <g id="Group_144" data-name="Group 144">
        <path id="Path_418" data-name="Path 418" d="M559.644,291.745V337.6L536.5,324.249V278.4Z" fill="#fff" stroke="#b7dcf8" stroke-linecap="round" stroke-linejoin="round" stroke-width="1"/>
        <path id="Path_419" data-name="Path 419" d="M559.644,291.745l2.856-1.713-23.145-13.4L536.5,278.4Z" fill="#d1ebff" stroke="#b7dcf8" stroke-linecap="round" stroke-linejoin="round" stroke-width="1"/>
        <path id="Path_420" data-name="Path 420" d="M559.644,291.745V337.6l2.856-1.713V290.032Z" stroke="#c7ccee" stroke-linecap="round" stroke-linejoin="round" stroke-width="1" fill="url(#linear-gradient-10)"/>
      </g>
      <g id="Group_145" data-name="Group 145">
        <path id="Path_421" data-name="Path 421" d="M559.644,291.726V337.6l117.468-68.753V222.808Z" fill="#d1ebff" stroke="#b7dcf8" stroke-linecap="round" stroke-linejoin="round" stroke-width="1"/>
        <path id="Path_422" data-name="Path 422" d="M559.644,291.745l-2.856-1.713,117.47-68.823,2.854,1.6Z" fill="#d1ebff" stroke="#b7dcf8" stroke-linecap="round" stroke-linejoin="round" stroke-width="1"/>
      </g>
      <g id="Group_147" data-name="Group 147">
        <g id="Group_146" data-name="Group 146">
          <path id="Path_423" data-name="Path 423" d="M507.609,212.623V247.73L489.89,237.51V202.4Z" fill="#d1ebff" stroke="#b7dcf8" stroke-linecap="round" stroke-linejoin="round" stroke-width="1"/>
          <path id="Path_424" data-name="Path 424" d="M507.609,212.623v32.4L489.89,234.8V202.4Z" fill="#136294"/>
          <path id="Path_425" data-name="Path 425" d="M489.89,202.367v35.107l2.186-1.311v-32.5Z" fill="#d1ebff" stroke="#b7dcf8" stroke-linecap="round" stroke-linejoin="round" stroke-width="1"/>
        </g>
        <path id="Path_426" data-name="Path 426" d="M500.108,208.262v35.107l2.187-1.311v-32.5Z" fill="#d1ebff" stroke="#b7dcf8" stroke-linecap="round" stroke-linejoin="round" stroke-width="1"/>
        <path id="Path_427" data-name="Path 427" d="M500.108,205.4v38.011l-2.716-1.567V203.837Z" fill="#fff" stroke="#b7dcf8" stroke-linecap="round" stroke-linejoin="round" stroke-width="1"/>
      </g>
      <g id="Group_149" data-name="Group 149">
        <g id="Group_148" data-name="Group 148">
          <path id="Path_428" data-name="Path 428" d="M564.148,245.271v35.107l-17.719-10.22V235.051Z" fill="#d1ebff" stroke="#b7dcf8" stroke-linecap="round" stroke-linejoin="round" stroke-width="1"/>
          <path id="Path_429" data-name="Path 429" d="M564.148,245.271v32.4l-17.719-10.22v-32.4Z" fill="#136294"/>
          <path id="Path_430" data-name="Path 430" d="M546.429,235.015v35.107l2.187-1.311v-32.5Z" stroke="#c7ccee" stroke-linecap="round" stroke-linejoin="round" stroke-width="1" fill="url(#linear-gradient-11)"/>
        </g>
        <path id="Path_431" data-name="Path 431" d="M555.553,240.273V275.38l2.187-1.311v-32.5Z" fill="#d1ebff" stroke="#b7dcf8" stroke-linecap="round" stroke-linejoin="round" stroke-width="1"/>
        <path id="Path_432" data-name="Path 432" d="M555.553,237.415v38.016l-2.716-1.567V235.849Z" fill="#fff" stroke="#b7dcf8" stroke-linecap="round" stroke-linejoin="round" stroke-width="1"/>
      </g>
      <g id="Group_152" data-name="Group 152">
        <g id="Group_150" data-name="Group 150">
          <path id="Path_433" data-name="Path 433" d="M450.02,256.308l11.042,6.349-.008,31.958-11.034-6.39Z" fill="#fff" stroke="#b7dcf8" stroke-linecap="round" stroke-linejoin="round" stroke-width="1"/>
          <path id="Path_434" data-name="Path 434" d="M461.062,262.657l10.734-6.621-10.742-6.122-11.034,6.394Z" fill="#d1ebff" stroke="#b7dcf8" stroke-linecap="round" stroke-linejoin="round" stroke-width="1"/>
          <path id="Path_435" data-name="Path 435" d="M461.054,262.657v31.958l10.742-6.493V256.036Z" fill="#d1ebff" stroke="#b7dcf8" stroke-linecap="round" stroke-linejoin="round" stroke-width="1"/>
        </g>
        <g id="Group_151" data-name="Group 151">
          <path id="Path_436" data-name="Path 436" d="M456.426,185.347l4.694,2.7v71.322l-4.69-2.716Z" fill="#fff" stroke="#b7dcf8" stroke-linecap="round" stroke-linejoin="round" stroke-width="1"/>
          <path id="Path_437" data-name="Path 437" d="M461.12,188.046l4.563-2.814-4.566-2.6-4.69,2.718Z" stroke="#c7ccee" stroke-linecap="round" stroke-linejoin="round" stroke-width="1" fill="url(#linear-gradient-12)"/>
          <path id="Path_438" data-name="Path 438" d="M461.116,188.046v71.322l4.566-2.76V185.232Z" fill="#d1ebff" stroke="#b7dcf8" stroke-linecap="round" stroke-linejoin="round" stroke-width="1"/>
        </g>
      </g>
      <g id="Group_155" data-name="Group 155">
        <g id="Group_153" data-name="Group 153">
          <path id="Path_439" data-name="Path 439" d="M535.541,304.1l11.042,6.349-.008,31.958-11.034-6.391Z" fill="#fff" stroke="#c7ccee" stroke-linecap="round" stroke-linejoin="round" stroke-width="1"/>
          <path id="Path_440" data-name="Path 440" d="M546.583,310.445l10.734-6.621L546.575,297.7l-11.034,6.4Z" fill="#d1ebff" stroke="#b7dcf8" stroke-linecap="round" stroke-linejoin="round" stroke-width="1"/>
          <path id="Path_441" data-name="Path 441" d="M546.575,310.445V342.4l10.742-6.493V303.823Z" fill="#d1ebff" stroke="#b7dcf8" stroke-linecap="round" stroke-linejoin="round" stroke-width="1"/>
        </g>
        <g id="Group_154" data-name="Group 154">
          <path id="Path_442" data-name="Path 442" d="M541.947,233.135l4.694,2.7v71.322l-4.69-2.716Z" fill="#fff" stroke="#b7dcf8" stroke-linecap="round" stroke-linejoin="round" stroke-width="1"/>
          <path id="Path_443" data-name="Path 443" d="M546.641,235.833l4.563-2.814-4.566-2.6-4.69,2.718Z" stroke="#c7ccee" stroke-linecap="round" stroke-linejoin="round" stroke-width="1" fill="url(#linear-gradient-13)"/>
          <path id="Path_444" data-name="Path 444" d="M546.637,235.833v71.322l4.566-2.76V233.019Z" fill="#d1ebff" stroke="#b7dcf8" stroke-linecap="round" stroke-linejoin="round" stroke-width="1"/>
        </g>
      </g>
      <g id="Group_159" data-name="Group 159">
        <g id="Group_157" data-name="Group 157">
          <g id="Group_156" data-name="Group 156">
            <path id="Path_445" data-name="Path 445" d="M631.614,214.954v28.069l24.914-14.383V196.38Z" fill="#d1ebff" stroke="#b7dcf8" stroke-linecap="round" stroke-linejoin="round" stroke-width="1"/>
            <path id="Path_446" data-name="Path 446" d="M633.954,209.4v28.814l22.574-13.02V196.379Z" fill="#136294"/>
            <path id="Path_447" data-name="Path 447" d="M656.528,196.333v32.261l-2.786-1.671V197.986Z" fill="#fff" stroke="#b7dcf8" stroke-linecap="round" stroke-linejoin="round" stroke-width="1"/>
          </g>
          <path id="Path_448" data-name="Path 448" d="M643.511,203.844V236.1l-2.786-1.671V205.5Z" fill="#fff" stroke="#b7dcf8" stroke-linecap="round" stroke-linejoin="round" stroke-width="1"/>
          <path id="Path_449" data-name="Path 449" d="M643.511,200.2v36.042l3.46-2V198.207Z" fill="#d1ebff" stroke="#b7dcf8" stroke-linecap="round" stroke-linejoin="round" stroke-width="1"/>
        </g>
        <path id="Path_450" data-name="Path 450" d="M637.3,218l-5.692-9.763v-6.673l-5.892-3.434-2.467-4.232v44.253l8.36,4.873v-28.07Z" fill="#fff" stroke="#b7dcf8" stroke-linecap="round" stroke-linejoin="round" stroke-width="1"/>
        <g id="Group_158" data-name="Group 158">
          <path id="Path_451" data-name="Path 451" d="M623.254,193.9l23.291-13.438,14.051,24.1L637.3,218Z" fill="#d1ebff" stroke="#b7dcf8" stroke-linecap="round" stroke-linejoin="round" stroke-width="1"/>
        </g>
      </g>
      <g id="Group_163" data-name="Group 163">
        <g id="Group_161" data-name="Group 161">
          <g id="Group_160" data-name="Group 160">
            <path id="Path_452" data-name="Path 452" d="M597.563,234.842v28.037L622.477,248.5V216.24Z" fill="#d1ebff" stroke="#b7dcf8" stroke-linecap="round" stroke-linejoin="round" stroke-width="1"/>
            <path id="Path_453" data-name="Path 453" d="M599.9,229.255v28.814l22.574-13.02V216.235Z" fill="#136294"/>
            <path id="Path_454" data-name="Path 454" d="M622.477,216.188v32.261l-2.786-1.671V217.841Z" fill="#fff" stroke="#b7dcf8" stroke-linecap="round" stroke-linejoin="round" stroke-width="1"/>
          </g>
          <path id="Path_455" data-name="Path 455" d="M609.46,223.7v32.26l-2.786-1.671V225.352Z" fill="#fff" stroke="#b7dcf8" stroke-linecap="round" stroke-linejoin="round" stroke-width="1"/>
          <path id="Path_456" data-name="Path 456" d="M609.46,220.058v35.988l3.46-2V218.062Z" fill="#d1ebff" stroke="#b7dcf8" stroke-linecap="round" stroke-linejoin="round" stroke-width="1"/>
        </g>
        <path id="Path_457" data-name="Path 457" d="M603.255,237.854l-5.692-9.762v-6.673l-5.892-3.434-2.467-4.232v44.253l8.36,4.872V234.842Z" fill="#fff" stroke="#b7dcf8" stroke-linecap="round" stroke-linejoin="round" stroke-width="1"/>
        <g id="Group_162" data-name="Group 162">
          <path id="Path_458" data-name="Path 458" d="M589.2,213.753l23.291-13.438,14.051,24.1-23.291,13.438Z" fill="#d1ebff" stroke="#b7dcf8" stroke-linecap="round" stroke-linejoin="round" stroke-width="1"/>
        </g>
      </g>
      <path id="Path_459" data-name="Path 459" d="M626.434,135.237l-111.959-64.6L446.93,186.5l111.959,64.6Z" fill="#d1ebff" stroke="#b7dcf8" stroke-linecap="round" stroke-linejoin="round" stroke-width="1"/>
      <path id="Path_460" data-name="Path 460" d="M665.239,170.072l-38.8-34.863-2.624,4.527L558.89,251.092l6.607-.055,62.629-107.421,37.113,33.3Z" fill="#d1ebff" stroke="#b7dcf8" stroke-linecap="round" stroke-linejoin="round" stroke-width="1"/>
      <g id="Group_171" data-name="Group 171">
        <path id="Path_461" data-name="Path 461" d="M564.057,175.926l-89.229-52.558v43.094l89.229,52.558Z" fill="#fff" stroke="#b7dcf8" stroke-linecap="round" stroke-linejoin="round" stroke-width="1"/>
        <g id="Group_166" data-name="Group 166">
          <g id="Group_164" data-name="Group 164">
            <path id="Path_462" data-name="Path 462" d="M504.9,140.819v35.107l-17.719-10.22V130.6Z" stroke="#c7ccee" stroke-linecap="round" stroke-linejoin="round" stroke-width="1" fill="url(#linear-gradient-14)"/>
            <path id="Path_463" data-name="Path 463" d="M504.9,140.819v32.4L487.179,163V130.6Z" fill="#136294"/>
            <path id="Path_464" data-name="Path 464" d="M487.179,130.563V165.67l2.186-1.312v-32.5Z" fill="#d1ebff" stroke="#b7dcf8" stroke-linecap="round" stroke-linejoin="round" stroke-width="1"/>
          </g>
          <path id="Path_465" data-name="Path 465" d="M497.4,136.458v35.107l2.186-1.311v-32.5Z" fill="#d1ebff" stroke="#b7dcf8" stroke-linecap="round" stroke-linejoin="round" stroke-width="1"/>
          <path id="Path_466" data-name="Path 466" d="M497.4,133.6v39.289l-2.716-1.567V132.034Z" fill="#fff" stroke="#b7dcf8" stroke-linecap="round" stroke-linejoin="round" stroke-width="1"/>
          <g id="Group_165" data-name="Group 165">
            <path id="Path_467" data-name="Path 467" d="M481.559,168.642l15.9,9.084V180.3l-15.894-8.756Z" fill="#fff" stroke="#b7dcf8" stroke-linecap="round" stroke-linejoin="round" stroke-width="1"/>
            <path id="Path_468" data-name="Path 468" d="M497.455,177.726l7.444-4.505L489.082,164.2l-7.524,4.445Z" fill="#d1ebff" stroke="#b7dcf8" stroke-linecap="round" stroke-linejoin="round" stroke-width="1"/>
            <path id="Path_469" data-name="Path 469" d="M497.452,177.726V180.3l7.446-4.519v-2.564Z" fill="#d1ebff" stroke="#b7dcf8" stroke-linecap="round" stroke-linejoin="round" stroke-width="1"/>
          </g>
        </g>
        <g id="Group_169" data-name="Group 169">
          <g id="Group_167" data-name="Group 167">
            <path id="Path_470" data-name="Path 470" d="M544.186,164.268v35.107l-17.719-10.22V154.048Z" stroke="#c7ccee" stroke-linecap="round" stroke-linejoin="round" stroke-width="1" fill="url(#linear-gradient-15)"/>
            <path id="Path_471" data-name="Path 471" d="M544.186,164.268v32.4l-17.719-10.22v-32.4Z" fill="#136294"/>
            <path id="Path_472" data-name="Path 472" d="M526.466,154.012v35.107l2.187-1.312v-32.5Z" fill="#d1ebff" stroke="#b7dcf8" stroke-linecap="round" stroke-linejoin="round" stroke-width="1"/>
          </g>
          <path id="Path_473" data-name="Path 473" d="M536.684,159.907v35.107l2.187-1.311V161.2Z" fill="#d1ebff" stroke="#b7dcf8" stroke-linecap="round" stroke-linejoin="round" stroke-width="1"/>
          <path id="Path_474" data-name="Path 474" d="M536.684,157.049v39.289l-2.716-1.567V155.483Z" fill="#fff" stroke="#b7dcf8" stroke-linecap="round" stroke-linejoin="round" stroke-width="1"/>
          <g id="Group_168" data-name="Group 168">
            <path id="Path_475" data-name="Path 475" d="M520.846,192.091l15.9,9.084v2.578L520.846,195Z" fill="#fff" stroke="#b7dcf8" stroke-linecap="round" stroke-linejoin="round" stroke-width="1"/>
            <path id="Path_476" data-name="Path 476" d="M536.742,201.175l7.444-4.505-15.816-9.024-7.524,4.445Z" fill="#d1ebff" stroke="#b7dcf8" stroke-linecap="round" stroke-linejoin="round" stroke-width="1"/>
            <path id="Path_477" data-name="Path 477" d="M536.74,201.175v2.578l7.446-4.519V196.67Z" fill="#d1ebff" stroke="#b7dcf8" stroke-linecap="round" stroke-linejoin="round" stroke-width="1"/>
          </g>
        </g>
        <path id="Path_478" data-name="Path 478" d="M610.075,143.5l-46.018,75.52V150.775Z" fill="#d1ebff" stroke="#b7dcf8" stroke-linecap="round" stroke-linejoin="round" stroke-width="1"/>
        <g id="Group_170" data-name="Group 170">
          <path id="Path_479" data-name="Path 479" d="M610.075,138.522l-88.89-51.807L465.9,129.26l88.89,51.807Z" fill="#d1ebff" stroke="#b7dcf8" stroke-linecap="round" stroke-linejoin="round" stroke-width="1"/>
          <path id="Path_480" data-name="Path 480" d="M554.729,186.088l-88.89-51.807.059-5.022,88.89,51.807Z" fill="#fff" stroke="#b7dcf8" stroke-linecap="round" stroke-linejoin="round" stroke-width="1"/>
          <path id="Path_481" data-name="Path 481" d="M610.075,138.522l-.066,5.024L554.722,186.09l.066-5.024Z" fill="#d1ebff" stroke="#b7dcf8" stroke-linecap="round" stroke-linejoin="round" stroke-width="1"/>
        </g>
      </g>
    </g>
    <ellipse id="Ellipse_3" data-name="Ellipse 3" cx="56.829" cy="29.84" rx="56.829" ry="29.84" transform="translate(353.206 367.912)" fill="#f5f7ff"/>
    <g id="Group_202" data-name="Group 202">
      <g id="Group_174" data-name="Group 174">
        <g id="Group_173" data-name="Group 173">
          <path id="Path_482" data-name="Path 482" d="M437.682,252.887h-.012a4.632,4.632,0,0,1-4.215-5.013l.874-10.11,9.24.8-.874,10.111a4.632,4.632,0,0,1-5.013,4.212Z" fill="#ecd4c7"/>
        </g>
      </g>
      <g id="Group_175" data-name="Group 175">
        <path id="Path_483" data-name="Path 483" d="M411.975,345.191,396,369.465l13.442,5.621-2.758-5.475,13.008-17.628Z" fill="#ecd4c7"/>
        <path id="Path_484" data-name="Path 484" d="M399.11,364.8a21.9,21.9,0,0,0-4.025,4.758,79.212,79.212,0,0,0,16.494,10.055,22.3,22.3,0,0,0-2.135-4.522s-6.725-4.241-7.906-5.435A7.473,7.473,0,0,1,399.11,364.8Z" fill="#e8391a"/>
      </g>
      <path id="Path_485" data-name="Path 485" d="M402.9,357.3a9.741,9.741,0,0,0,4.034,4.478,13.214,13.214,0,0,0,5.1,1.759S433.08,333.588,435,328.288s4.585-42.736,4.585-42.736l-12.933-8.192c-3.895,7.979-4.372,11.61-3.854,20.5.608,10.4,1.931,17.551-1.027,26.385C419.6,330.77,411.092,346.719,402.9,357.3Z" fill="url(#linear-gradient)"/>
      <path id="Path_486" data-name="Path 486" d="M406.934,361.78a13.214,13.214,0,0,0,5.1,1.759S433.08,333.588,435,328.288s4.585-42.736,4.585-42.736l-3.714-2.144s-2.654,37.436-4.585,42.736C429.827,330.145,414.412,351.517,406.934,361.78Z" fill="#052234"/>
      <g id="Group_176" data-name="Group 176">
        <path id="Path_487" data-name="Path 487" d="M437.386,352.637l.388,32.066,19.016-1.345-9.155-5.121,1.006-24.157Z" fill="#ecd4c7"/>
        <path id="Path_488" data-name="Path 488" d="M437.731,378.512a24.148,24.148,0,0,0-.74,6.838,158.342,158.342,0,0,0,21.294-.994,24.583,24.583,0,0,0-4.745-2.817s-8.77.277-10.588-.086a8.256,8.256,0,0,1-5.221-2.941Z" fill="#e8391a"/>
      </g>
      <path id="Path_489" data-name="Path 489" d="M448.029,277.671s2.728,17.067,1.939,45.36-1.823,47.16-1.823,47.16c-1.951,2.011-7.4,2.273-10.774.333,0,0,.127-50.087-3.256-63.393-1.289-5.074-7.06-13.282-4.061-25.208Z" fill="url(#linear-gradient)"/>
      <path id="Path_490" data-name="Path 490" d="M445.118,232.686c.353,1.884,1.827,3.188,3.292,2.914s2.367-2.024,2.014-3.908-1.827-3.189-3.292-2.914S444.765,230.8,445.118,232.686Z" fill="none" stroke="#c7ccee" stroke-linecap="round" stroke-linejoin="round" stroke-width="1"/>
      <g id="Group_178" data-name="Group 178">
        <g id="Group_177" data-name="Group 177">
          <path id="Path_491" data-name="Path 491" d="M430.876,234.875l.774,2.692a9.24,9.24,0,0,0,11.434,6.324l1.257-.361c3.671-1.056,5.7-5.184,4.544-9.219l-1.227-4.264a9.346,9.346,0,0,0-.465-1.281,9.966,9.966,0,0,0-1.374-2.3,8.722,8.722,0,0,0-9.208-3.231c-.213.062-.424.131-.626.2a8.818,8.818,0,0,0-5.458,7.425,10.267,10.267,0,0,0,.063,2.673,9.287,9.287,0,0,0,.286,1.337Z" fill="#ecd4c7"/>
        </g>
      </g>
      <path id="Path_492" data-name="Path 492" d="M427.281,237.536a10.027,10.027,0,1,0,3.7-13.689,10.027,10.027,0,0,0-3.7,13.689Z" fill="#136294"/>
      <path id="Path_493" data-name="Path 493" d="M432.528,223.874c5.69-4.914,12.327-3.537,15.724,1.754a26.222,26.222,0,0,1-5.256,6.4Z" fill="#136294"/>
      <line id="Line_8" data-name="Line 8" y1="4.217" x2="8.261" transform="translate(441.851 230.693)" fill="none" stroke="#c7ccee" stroke-linecap="round" stroke-linejoin="round" stroke-width="1"/>
      <path id="Path_494" data-name="Path 494" d="M421.712,266.345l-.575,2.675-.917,4.232a5.348,5.348,0,0,0,10.456,2.255l.9-4.2.563-2.616a14.711,14.711,0,0,0-5.055-2.008,14.964,14.964,0,0,0-5.372-.338Z" fill="#ecd4c7"/>
      <g id="Group_179" data-name="Group 179">
        <path id="Path_495" data-name="Path 495" d="M419.74,268.665l13.26,2.78L436.237,256a6.774,6.774,0,0,0-5.24-8.02h0a6.774,6.774,0,0,0-8.019,5.239Z" fill="#1fa7b2"/>
      </g>
      <path id="Path_496" data-name="Path 496" d="M419.725,268.738c-.07.522.407,1.071,1.279,1.567a6,6,0,0,0,.818.408.733.733,0,0,0,.122.053,17.154,17.154,0,0,0,4.192,1.1,18.174,18.174,0,0,0,3.647.161c.359-.027.693-.059,1-.107a6.983,6.983,0,0,0,.812-.178c.909-.246,1.477-.626,1.553-1.125s-.387-1.04-1.2-1.528a8.451,8.451,0,0,0-.782-.406c-.286-.13-.6-.248-.929-.367a18.187,18.187,0,0,0-3.5-.817,16.9,16.9,0,0,0-4.389-.085,1.273,1.273,0,0,0-.138.024,6.773,6.773,0,0,0-.858.16C420.4,267.832,419.8,268.228,419.725,268.738Z" fill="#138a94"/>
      <g id="Group_180" data-name="Group 180">
        <path id="Path_497" data-name="Path 497" d="M450.341,255.148v32.367c-13.337,5.637-26.673-5.086-26.673-5.086l3.62-10.591-3.069-15.367-.391-1.975a5.592,5.592,0,0,1,6.108-6.652l.156.016L442.8,249.3l2.571.292a5.61,5.61,0,0,1,4.965,5.557Z" fill="url(#linear-gradient-3)"/>
      </g>
      <g id="Group_200" data-name="Group 200">
        <g id="Group_181" data-name="Group 181">
          <path id="Path_498" data-name="Path 498" d="M441.523,273.364l13.4-1.979-2.3-15.61a6.774,6.774,0,0,0-7.691-5.711h0a6.775,6.775,0,0,0-5.711,7.691Z" fill="url(#linear-gradient-3)"/>
        </g>
        <path id="Path_499" data-name="Path 499" d="M441.508,273.266c.076.521.685.919,1.659,1.157a6.161,6.161,0,0,0,.9.168.726.726,0,0,0,.132.017,17.084,17.084,0,0,0,4.331-.1,17.982,17.982,0,0,0,3.552-.845c.338-.123.65-.245.931-.376a7.13,7.13,0,0,0,.732-.394c.806-.485,1.249-1.006,1.185-1.507s-.658-.894-1.57-1.142a8.251,8.251,0,0,0-.863-.175c-.31-.048-.643-.075-.993-.1a18.244,18.244,0,0,0-3.588.172,16.951,16.951,0,0,0-4.243,1.122,1.162,1.162,0,0,0-.127.06,6.77,6.77,0,0,0-.781.39C441.913,272.209,441.438,272.755,441.508,273.266Z" fill="#136294"/>
        <g id="Group_199" data-name="Group 199">
          <g id="Group_198" data-name="Group 198">
            <g id="Group_194" data-name="Group 194">
              <g id="Group_184" data-name="Group 184">
                <g id="Group_183" data-name="Group 183">
                  <g id="Group_182" data-name="Group 182">
                    <path id="Path_500" data-name="Path 500" d="M476.5,297.289l2.58,3.671a.686.686,0,0,1-.1.906h0a.686.686,0,0,1-.958-.043l-2.983-3.192Z" fill="#ecd4c7"/>
                  </g>
                </g>
              </g>
              <g id="Group_187" data-name="Group 187">
                <g id="Group_186" data-name="Group 186">
                  <g id="Group_185" data-name="Group 185">
                    <path id="Path_501" data-name="Path 501" d="M472.848,296.424l3.652.865,2.335,4.788a.651.651,0,0,1-.313.875h0a.65.65,0,0,1-.725-.126l-2.4-2.35-5.856-.284Z" fill="#ecd4c7"/>
                  </g>
                </g>
              </g>
              <g id="Group_190" data-name="Group 190">
                <g id="Group_189" data-name="Group 189">
                  <g id="Group_188" data-name="Group 188">
                    <path id="Path_502" data-name="Path 502" d="M471.921,299.275l4.375-1.659,2.056,1.7a.417.417,0,0,0,.521.01h0a.417.417,0,0,0,.079-.584l-2.105-2.777-3.216-.336Z" fill="#ecd4c7"/>
                  </g>
                </g>
              </g>
              <g id="Group_193" data-name="Group 193">
                <g id="Group_192" data-name="Group 192">
                  <g id="Group_191" data-name="Group 191">
                    <path id="Path_503" data-name="Path 503" d="M462.612,298.87a12.272,12.272,0,0,0,8.435,3.014l2.584-6.252-11.584-.161Z" fill="#ecd4c7"/>
                  </g>
                </g>
              </g>
            </g>
            <g id="Group_197" data-name="Group 197">
              <g id="Group_196" data-name="Group 196">
                <g id="Group_195" data-name="Group 195">
                  <path id="Path_504" data-name="Path 504" d="M471.554,299.206l3.867,2.181,1.113,2.217a.419.419,0,0,1-.291.6l-.027.005a.418.418,0,0,1-.391-.127l-1.44-1.575-3.338-.621Z" fill="#ecd4c7"/>
                </g>
              </g>
            </g>
          </g>
        </g>
        <path id="Path_505" data-name="Path 505" d="M443.545,271.328l.309,1.933.212,1.33.916,5.676a4.518,4.518,0,1,0,8.94-1.309l-.91-5.667-.179-1.1-.337-2.118c-.31-.048-.643-.075-.993-.1a18.242,18.242,0,0,0-3.588.172,16.953,16.953,0,0,0-4.243,1.122,1.163,1.163,0,0,0-.127.061Z" fill="#ecd4c7"/>
        <path id="Path_506" data-name="Path 506" d="M445.734,282.281c4.077,6.991,17.312,16.927,17.312,16.927l3.832-2.784L453.828,277.6a4.674,4.674,0,0,0-5.13-2.236h0a4.681,4.681,0,0,0-2.964,6.917Z" fill="#ecd4c7"/>
      </g>
      <path id="Path_507" data-name="Path 507" d="M447.768,250.254c-3.156.92-7.593,3.188-7.379,10.016l-4.511-1.11a18.352,18.352,0,0,1,2.424-7.617,9.368,9.368,0,0,0-3.394,7.379l-12.572-3.089c-2.21-7.9,2.531-8.365,4.1-11.167,2.465-4.4-1.323-6.417-.313-14.6l15.727,7.945C443.273,246.219,446.576,244.617,447.768,250.254Z" fill="#136294"/>
      <g id="Group_201" data-name="Group 201">
        <path id="Path_508" data-name="Path 508" d="M445.964,236.376c-2.623-3.276-4.42-3.194-5.691-2.188-1.581,1.251-1.032,4.612,1.24,5.782a3.115,3.115,0,0,0,4.425-2.772Z" fill="#ecd4c7"/>
        <rect id="Rectangle_4" data-name="Rectangle 4" width="0.667" height="2.164" transform="matrix(0.558, -0.83, 0.83, 0.558, 442.186, 236.804)" fill="#d8a7a2"/>
      </g>
    </g>
    <g id="Group_203" data-name="Group 203">
      <path id="Path_509" data-name="Path 509" d="M554.043,346.844l89.485-42.354,74.493,59.876-82.563,51.422Z" fill="#f1f7ff"/>
      <path id="Path_510" data-name="Path 510" d="M547.637,353.958l80.878-47.745,89.506,52.153-80.878,47.745Z" fill="#fff"/>
      <path id="Path_511" data-name="Path 511" d="M572.423,353.186,628.659,321l61.483,35.229-55.879,32.987Z" fill="none" stroke="#a8cde8" stroke-linecap="round" stroke-linejoin="round" stroke-width="2"/>
      <path id="Path_512" data-name="Path 512" d="M597.5,367.8h0a21.649,21.649,0,0,1,21.9-.062l1.13.658L609.6,374.85Z" fill="none" stroke="#a8cde8" stroke-linecap="round" stroke-linejoin="round" stroke-width="2"/>
      <path id="Path_513" data-name="Path 513" d="M615.5,328.536l13.155,7.59L606.37,348.982" fill="none" stroke="#a8cde8" stroke-linecap="round" stroke-linejoin="round" stroke-width="2"/>
      <line id="Line_9" data-name="Line 9" x2="13.168" y2="7.38" transform="translate(589.256 343.553)" fill="none" stroke="#a8cde8" stroke-linecap="round" stroke-linejoin="round" stroke-width="2"/>
      <path id="Path_514" data-name="Path 514" d="M654.918,336.049l-13.4,7.5,22.06,12.728" fill="none" stroke="#a8cde8" stroke-linecap="round" stroke-linejoin="round" stroke-width="2"/>
      <line id="Line_10" data-name="Line 10" y1="7.597" x2="13.167" transform="translate(667.726 350.932)" fill="none" stroke="#a8cde8" stroke-linecap="round" stroke-linejoin="round" stroke-width="2"/>
      <line id="Line_11" data-name="Line 11" y1="12.721" x2="21.306" transform="translate(616.033 365.875)" fill="none" stroke="#a8cde8" stroke-linecap="round" stroke-linejoin="round" stroke-width="2"/>
      <line id="Line_12" data-name="Line 12" x2="18.323" y2="10.638" transform="translate(640.733 363.944)" fill="none" stroke="#a8cde8" stroke-linecap="round" stroke-linejoin="round" stroke-width="2"/>
      <path id="Path_515" data-name="Path 515" d="M654.786,351.389l-13,7.468-20-11.615,26.622-14.925" fill="none" stroke="#a8cde8" stroke-linecap="round" stroke-linejoin="round" stroke-width="2"/>
    </g>
    <g id="Group_218" data-name="Group 218">
      <g id="Group_209" data-name="Group 209">
        <g id="Group_205" data-name="Group 205">
          <g id="Group_204" data-name="Group 204">
            <path id="Path_516" data-name="Path 516" d="M493.216,274.833l5.29,3.041v80.377l-5.286-3.061Z" fill="#fff" stroke="#b7dcf8" stroke-linecap="round" stroke-linejoin="round" stroke-width="1"/>
            <path id="Path_517" data-name="Path 517" d="M498.505,277.874l5.142-3.172L498.5,271.77l-5.286,3.063Z" fill="#d1ebff" stroke="#b7dcf8" stroke-linecap="round" stroke-linejoin="round" stroke-width="1"/>
            <path id="Path_518" data-name="Path 518" d="M498.5,277.874v80.377l5.146-3.111V274.7Z" fill="#d1ebff" stroke="#b7dcf8" stroke-linecap="round" stroke-linejoin="round" stroke-width="1"/>
          </g>
        </g>
        <g id="Group_206" data-name="Group 206">
          <path id="Path_519" data-name="Path 519" d="M499.984,282.21l56.081,32.02V362.8l-56.08-31.07Z" fill="url(#linear-gradient-3)"/>
          <path id="Path_520" data-name="Path 520" d="M556.065,314.23l2.181-1.345-56.02-31.974-2.242,1.3Z" fill="#1fa7b2"/>
          <path id="Path_521" data-name="Path 521" d="M556.063,314.23V362.8l2.183-1.319v-48.6Z" stroke="#c7ccee" stroke-linecap="round" stroke-linejoin="round" stroke-width="1" fill="url(#linear-gradient-21)"/>
        </g>
        <g id="Group_208" data-name="Group 208">
          <g id="Group_207" data-name="Group 207">
            <path id="Path_522" data-name="Path 522" d="M554.121,309.829l5.289,3.041v80.377l-5.286-3.061Z" fill="#fff" stroke="#b7dcf8" stroke-linecap="round" stroke-linejoin="round" stroke-width="1"/>
            <path id="Path_523" data-name="Path 523" d="M559.41,312.871l5.142-3.172-5.146-2.933-5.286,3.063Z" fill="#d1ebff" stroke="#b7dcf8" stroke-linecap="round" stroke-linejoin="round" stroke-width="1"/>
            <path id="Path_524" data-name="Path 524" d="M559.406,312.871v80.377l5.146-3.11V309.7Z" fill="#d1ebff" stroke="#b7dcf8" stroke-linecap="round" stroke-linejoin="round" stroke-width="1"/>
          </g>
        </g>
      </g>
      <g id="Group_217" data-name="Group 217">
        <g id="Group_216" data-name="Group 216">
          <g id="Group_215" data-name="Group 215" style="isolation: isolate">
            <g id="Group_214" data-name="Group 214" clip-path="url(#clip-path)">
              <g id="Group_213" data-name="Group 213">
                <g id="Group_212" data-name="Group 212">
                  <g id="Group_211" data-name="Group 211">
                    <g id="Group_210" data-name="Group 210">
                      <path id="Path_525" data-name="Path 525" d="M519,298l-7.042-4.066L511.9,312.68l3.6,2.079.024-8.335,3,1.733.008-2.891-3-1.733.013-4.718,3.441,1.987L519,298" fill="#fff"/>
                      <path id="Path_526" data-name="Path 526" d="M524.515,317.3a2.071,2.071,0,0,1-.817-.794,2.869,2.869,0,0,1-.317-1.021,7.774,7.774,0,0,1-.067-1.082l.026-9.025a6.044,6.044,0,0,1,.079-1.005.858.858,0,0,1,.347-.622c.173-.113.435-.072.786.13a2.113,2.113,0,0,1,.823.8,3.1,3.1,0,0,1,.343,1.021,7.794,7.794,0,0,1,.073,1.093l-.025,9.024a6.071,6.071,0,0,1-.08,1,.92.92,0,0,1-.347.637c-.173.113-.448.065-.824-.153m.046-16.331a5.26,5.26,0,0,0-2.9-.948,1.8,1.8,0,0,0-1.538,1.207,8.083,8.083,0,0,0-.476,3.039l-.019,6.963a13.374,13.374,0,0,0,.456,3.585,8.507,8.507,0,0,0,1.527,3.013,9.906,9.906,0,0,0,2.9,2.414,5.307,5.307,0,0,0,2.933.951,1.853,1.853,0,0,0,1.545-1.239,8.281,8.281,0,0,0,.469-3.051l.019-6.962a13.114,13.114,0,0,0-.45-3.575,8.444,8.444,0,0,0-1.533-2.979,10.231,10.231,0,0,0-2.928-2.418" fill="#fff"/>
                      <path id="Path_527" data-name="Path 527" d="M534.465,314.908l.015-5.18,1.168.675a3.15,3.15,0,0,1,1.4,1.478,5.28,5.28,0,0,1,.378,2.1,4.16,4.16,0,0,1-.176,1.324.738.738,0,0,1-.6.552,1.955,1.955,0,0,1-1.188-.37l-1-.579m.9-7.452-4.488-2.591-.053,18.745,3.607,2.083.024-8.4,1.021.59,1.771,9.437,3.728,2.153-2.215-10.363a1.638,1.638,0,0,0,1.242-.385,2.152,2.152,0,0,0,.6-1.22,10.187,10.187,0,0,0,.172-1.966,8.173,8.173,0,0,0-.669-3.435,8.081,8.081,0,0,0-1.879-2.577,15.9,15.9,0,0,0-2.859-2.07" fill="#fff"/>
                      <path id="Path_528" data-name="Path 528" d="M513.355,315.109c-1.4-.811-2.523-1.038-3.343-.673s-1.238,1.35-1.242,2.934a8.09,8.09,0,0,0,.63,3.2,18.594,18.594,0,0,0,1.552,2.954l1.407,2.223a19.077,19.077,0,0,1,1.3,2.363,5.438,5.438,0,0,1,.479,2.239,1.81,1.81,0,0,1-.175.825c-.115.227-.365.23-.735.016a2.2,2.2,0,0,1-.759-.762,4.231,4.231,0,0,1-.476-1.347,11.292,11.292,0,0,1-.186-2.048l-3.085-1.252a13.365,13.365,0,0,0,.578,3.729,8.106,8.106,0,0,0,1.546,2.825,9.461,9.461,0,0,0,2.552,2.106,4.047,4.047,0,0,0,2.268.677,1.875,1.875,0,0,0,1.486-.839,3.738,3.738,0,0,0,.53-2.1,9.393,9.393,0,0,0-.725-3.681,22.146,22.146,0,0,0-1.8-3.406l-1.343-2.143a19.583,19.583,0,0,1-1.133-2.035,4.487,4.487,0,0,1-.429-1.953,1.49,1.49,0,0,1,.233-.836c.154-.234.4-.252.735-.06a1.683,1.683,0,0,1,.689.728,3.42,3.42,0,0,1,.284,1.12c.05.433.075.932.092,1.5l3.1,1.347a14.243,14.243,0,0,0-.168-1.845,9.466,9.466,0,0,0-.557-2.064,7.467,7.467,0,0,0-1.2-2.024,7.6,7.6,0,0,0-2.106-1.723" fill="#fff"/>
                      <path id="Path_529" data-name="Path 529" d="M521.977,332.668l.889-6.813.848,7.816-1.737-1m2.933-10.637-4.1-2.371-3.13,16.969,3.4,1.965.573-3.638,2.394,1.383.532,4.275,3.326,1.921-2.993-20.5" fill="#fff"/>
                      <path id="Path_530" data-name="Path 530" d="M532.24,326.263l-3.6-2.079-.053,18.746,7.349,4.243.008-2.8-3.748-2.164.045-15.943" fill="#fff"/>
                      <path id="Path_531" data-name="Path 531" d="M543.924,333.009l-7.33-4.232-.053,18.746,7.368,4.254.008-2.8L540.15,346.8l.016-5.6,2.841,1.64.008-2.869-2.841-1.64.013-4.652,3.729,2.153.008-2.825" fill="#fff"/>
                    </g>
                  </g>
                </g>
              </g>
            </g>
          </g>
        </g>
      </g>
    </g>
    <g id="Group_220" data-name="Group 220">
      <path id="Path_533" data-name="Path 533" d="M545.236,131.333c-4.873-2.813-4.9-7.374-.063-10.184s12.716-2.814,17.589,0,4.9,7.374.057,10.188-12.71,2.81-17.583,0m24.295-14.118c-8.7-5.025-22.762-5.025-31.416,0-14.181,8.241-8.058,22.936-8.058,22.936s25.589,3.39,39.576-4.739c8.654-5.029,8.6-13.176-.1-18.2" fill="url(#linear-gradient-22)"/>
      <g id="Group_219" data-name="Group 219">
        <path id="Path_534" data-name="Path 534" d="M532.466,82.855a22.211,22.211,0,0,0-22.209,22.216c0,20.127,22.209,33.789,22.209,33.789s22.219-13.937,22.219-33.786a22.215,22.215,0,0,0-22.224-22.219Zm0,34.475a12.433,12.433,0,1,1,12.442-12.43,12.433,12.433,0,0,1-12.442,12.43Z" fill="#1fa7b2"/>
        <path id="Path_535" data-name="Path 535" d="M530.012,140.147l2.454-1.287-.684-8.317Z" fill="#cb4900"/>
        <path id="Path_536" data-name="Path 536" d="M530.012,84.142A22.212,22.212,0,0,0,507.8,106.361c0,20.124,22.209,33.786,22.209,33.786s22.219-13.937,22.219-33.786a22.215,22.215,0,0,0-22.221-22.219Zm0,34.475a12.433,12.433,0,1,1,12.442-12.436,12.433,12.433,0,0,1-12.442,12.436Z" fill="url(#linear-gradient-3)"/>
      </g>
    </g>
    <path id="Path_537" data-name="Path 537" d="M672.414,257.781c-2.114-18.993-21.1-20.476-30.306,19.086-7.352-5.429-23.97,3.214-20.415,27.229l67.939-40.863C697.649,247.474,682.131,232.892,672.414,257.781Z" fill="#136294"/>
  </g>
</svg>
