<svg xmlns="http://www.w3.org/2000/svg" xmlns:xlink="http://www.w3.org/1999/xlink" width="336.78" height="331.832" viewBox="0 0 336.78 331.832">
  <defs>
    <linearGradient id="linear-gradient" y1="0.5" x2="1" y2="0.5" gradientUnits="objectBoundingBox">
      <stop offset="0" stop-color="#afb6e5"/>
      <stop offset="0.145" stop-color="#b5bce8"/>
      <stop offset="0.349" stop-color="#c7cdf0"/>
      <stop offset="0.581" stop-color="#e5e9ff"/>
      <stop offset="0.955" stop-color="#f4f4fb"/>
      <stop offset="1" stop-color="#f7f6fb"/>
    </linearGradient>
    <linearGradient id="linear-gradient-2" x1="2.176" y1="0.608" x2="-0.587" y2="0.43" gradientUnits="objectBoundingBox">
      <stop offset="0" stop-color="#273b98"/>
      <stop offset="1" stop-color="#12054e"/>
      <stop offset="1" stop-color="#10054d"/>
    </linearGradient>
    <linearGradient id="linear-gradient-3" x1="0" y1="0.5" x2="1" y2="0.5" xlink:href="#linear-gradient-2"/>
    <linearGradient id="linear-gradient-4" x1="1.264" y1="-2.025" x2="0.392" y2="0.858" xlink:href="#linear-gradient"/>
    <linearGradient id="linear-gradient-5" x1="0.749" y1="2.262" x2="0.432" y2="0.069" xlink:href="#linear-gradient"/>
    <radialGradient id="radial-gradient" cx="-0.504" cy="0.304" r="0.627" gradientTransform="translate(-0.815) scale(2.629 1)" gradientUnits="objectBoundingBox">
      <stop offset="0" stop-color="#f36dd4"/>
      <stop offset="0.114" stop-color="#bc54a4"/>
      <stop offset="0.235" stop-color="#8b3e79"/>
      <stop offset="0.358" stop-color="#602b54"/>
      <stop offset="0.482" stop-color="#3d1b35"/>
      <stop offset="0.608" stop-color="#220f1e"/>
      <stop offset="0.735" stop-color="#0f060d"/>
      <stop offset="0.864" stop-color="#030103"/>
      <stop offset="1"/>
    </radialGradient>
    <linearGradient id="linear-gradient-13" x1="0.918" y1="2.79" x2="0.431" y2="0.172" xlink:href="#linear-gradient"/>
    <linearGradient id="linear-gradient-18" x1="1.03" y1="2.553" x2="0.416" y2="0.225" xlink:href="#linear-gradient"/>
    <radialGradient id="radial-gradient-2" cx="-0.504" cy="0.304" r="0.627" gradientTransform="matrix(1, 0, 0, 1, 0, 0)" xlink:href="#radial-gradient"/>
    <radialGradient id="radial-gradient-3" cx="1.336" cy="0.367" r="0.7" gradientTransform="translate(-0.534) scale(2.069 1)" xlink:href="#radial-gradient"/>
    <linearGradient id="linear-gradient-19" x1="1.712" y1="0.5" x2="0.109" y2="0.5" gradientUnits="objectBoundingBox">
      <stop offset="0" stop-color="#49759b"/>
      <stop offset="1" stop-color="#6b90ac" stop-opacity="0"/>
    </linearGradient>
    <linearGradient id="linear-gradient-20" x1="-8.545" y1="1.123" x2="-10.024" y2="0.465" gradientUnits="objectBoundingBox">
      <stop offset="0" stop-color="#fff"/>
      <stop offset="1" stop-color="#fff" stop-opacity="0"/>
    </linearGradient>
    <linearGradient id="linear-gradient-21" x1="-1.371" y1="1.123" x2="-2.85" y2="0.465" xlink:href="#linear-gradient-20"/>
    <linearGradient id="linear-gradient-22" x1="5.812" y1="1.123" x2="4.333" y2="0.465" xlink:href="#linear-gradient-20"/>
    <linearGradient id="linear-gradient-23" x1="-20.884" y1="1.123" x2="-22.363" y2="0.465" xlink:href="#linear-gradient-20"/>
    <linearGradient id="linear-gradient-24" x1="-13.71" y1="1.123" x2="-15.189" y2="0.465" xlink:href="#linear-gradient-20"/>
    <linearGradient id="linear-gradient-25" x1="-6.527" y1="1.123" x2="-8.006" y2="0.465" xlink:href="#linear-gradient-20"/>
    <linearGradient id="linear-gradient-26" x1="1.901" y1="1.123" x2="0.422" y2="0.465" xlink:href="#linear-gradient-20"/>
    <linearGradient id="linear-gradient-27" x1="0.5" y1="1.333" x2="0.5" y2="0.224" gradientUnits="objectBoundingBox">
      <stop offset="0" stop-color="#d7d1eb"/>
      <stop offset="1" stop-color="#f2effa"/>
    </linearGradient>
    <linearGradient id="linear-gradient-28" x1="-0.701" y1="3.617" x2="-0.701" y2="2.774" xlink:href="#linear-gradient-27"/>
    <linearGradient id="linear-gradient-29" x1="2.553" y1="1.928" x2="0.597" y2="0.443" xlink:href="#linear-gradient-20"/>
    <linearGradient id="linear-gradient-31" x1="0.942" y1="0.893" x2="0.419" y2="0.428" xlink:href="#linear-gradient-20"/>
    <linearGradient id="linear-gradient-33" x1="-4.811" y1="0.113" x2="-4.811" y2="0.826" gradientUnits="objectBoundingBox">
      <stop offset="0" stop-color="#136294"/>
      <stop offset="1" stop-color="#052234"/>
    </linearGradient>
    <linearGradient id="linear-gradient-34" y1="0.851" y2="-0.174" xlink:href="#linear-gradient-27"/>
  </defs>
  <g id="overview-01" transform="translate(-1662.335 500.786)">
    <g id="overview" transform="translate(1569.867 -553.796)">
      <g id="Group_592" data-name="Group 592" transform="translate(92.468 53.01)">
        <g id="Group_587" data-name="Group 587" transform="translate(142.448)">
          <path id="Path_1867" data-name="Path 1867" d="M337.382,82.967,304.6,53.01l-32.778,67.806,13.331-7.7V214.584l38.9-22.456V90.663Z" transform="translate(-271.826 -53.01)" fill="url(#linear-gradient)"/>
          <path id="Path_1868" data-name="Path 1868" d="M288.61,230.159l17.2,9.638V138.332l-17.2-9.638Z" transform="translate(-275.28 -68.584)" fill="#a0caeb"/>
          <path id="Path_1869" data-name="Path 1869" d="M359.036,95.1,326.258,65.145l-32.779,67.806,13.331-7.7V226.72l38.9-22.456V102.8Z" transform="translate(-276.281 -55.507)" fill="#d1ebff"/>
          <path id="Path_1870" data-name="Path 1870" d="M326.735,67.63l30.893,28.285,1.408-.813L326.257,65.145l-32.779,67.806,2.026-1.169Z" transform="translate(-276.281 -55.507)" fill="#82a6c1"/>
          <path id="Path_1871" data-name="Path 1871" d="M329.279,221.273v23.989l12.36-7.136V214.137Z" transform="translate(-283.649 -86.167)" fill="#09cfe1" opacity="0.95"/>
          <path id="Path_1872" data-name="Path 1872" d="M329.279,154.115v17.749l12.36-7.136V146.979Z" transform="translate(-283.649 -72.347)" fill="#82a6c1"/>
          <path id="Path_1873" data-name="Path 1873" d="M329.279,120.876v17.749l12.36-7.136V113.74Z" transform="translate(-283.649 -65.507)" fill="#82a6c1"/>
          <path id="Path_1874" data-name="Path 1874" d="M271.826,120.816l17.2,9.638L321.8,62.648,304.6,53.01Z" transform="translate(-271.826 -53.01)" fill="#3879ac"/>
          <path id="Path_1875" data-name="Path 1875" d="M329.279,221.273v23.989l12.36-7.137V214.137Zm9.438,15.24-8.464,4.887V221.912l8.464-4.887Z" transform="translate(-283.649 -86.167)" fill="url(#linear-gradient-2)"/>
          <path id="Path_1876" data-name="Path 1876" d="M340.1,215.027v22.286l-10.818,6.246v1.7l12.361-7.136V214.137Z" transform="translate(-283.649 -86.167)" fill="#fff" opacity="0.95"/>
          <path id="Path_1877" data-name="Path 1877" d="M329.279,187.643v17.749l12.36-7.136v-17.75Z" transform="translate(-283.649 -79.247)" fill="#82a6c1"/>
          <path id="Path_1878" data-name="Path 1878" d="M329.279,120.876v17.749l12.36-7.137V113.74Zm.974.638,3.6-2.077v13.249l-3.6,2.077Zm8.464,8.362-3.482,2.01V118.637l3.482-2.01Z" transform="translate(-283.649 -65.507)" fill="url(#linear-gradient-3)"/>
          <g id="Group_586" data-name="Group 586" transform="translate(45.606 151.124)">
            <path id="Path_1879" data-name="Path 1879" d="M332.814,253.612v1.474l12.524-7.176v-1.474Z" transform="translate(-329.982 -243.938)" fill="#ced3f4"/>
            <path id="Path_1880" data-name="Path 1880" d="M336.349,257.509v1.8l12.524-7.176v-1.8Z" transform="translate(-330.709 -244.74)" fill="#ced3f4"/>
            <path id="Path_1881" data-name="Path 1881" d="M332.783,255.4l2.841,1.671,12.515-7.176-2.859-1.681Z" transform="translate(-329.975 -244.304)" fill="url(#linear-gradient-4)"/>
            <path id="Path_1882" data-name="Path 1882" d="M329.248,251.294l2.841,1.671,12.515-7.176-4.526-2.5-10.811,6.292Z" transform="translate(-329.248 -243.29)" fill="url(#linear-gradient-5)"/>
          </g>
          <path id="Path_1883" data-name="Path 1883" d="M334.944,259.888v-.274l-.038-.042v-1.434l-2.808-1.651v-1.445l-2.808-1.651v3.327Z" transform="translate(-283.651 -94.245)" fill="#afb6e5"/>
          <path id="Path_1884" data-name="Path 1884" d="M329.279,154.115v17.749l12.36-7.136V146.979Zm.974.639,3.6-2.077v13.248l-3.6,2.077Zm8.464,8.362-3.482,2.01V151.877l3.482-2.01Z" transform="translate(-283.649 -72.347)" fill="url(#linear-gradient-3)"/>
          <path id="Path_1885" data-name="Path 1885" d="M329.279,187.643v17.749l12.36-7.137V180.506Zm.974.638,3.6-2.077v13.249l-3.6,2.077Zm8.464,8.362-3.482,2.01V185.4l3.482-2.01Z" transform="translate(-283.649 -79.246)" fill="url(#linear-gradient-3)"/>
          <path id="Path_1886" data-name="Path 1886" d="M340.1,147.87v16.047l-10.818,6.246v1.7l12.361-7.136V146.979Z" transform="translate(-283.649 -72.347)" fill="#fff" opacity="0.95"/>
          <path id="Path_1887" data-name="Path 1887" d="M340.1,181.4v16.046l-10.818,6.246v1.7l12.361-7.136v-17.75Z" transform="translate(-283.649 -79.247)" fill="#fff" opacity="0.95"/>
          <path id="Path_1888" data-name="Path 1888" d="M340.1,114.63v16.047l-10.818,6.246v1.7l12.361-7.136V113.74Z" transform="translate(-283.649 -65.507)" fill="#fff" opacity="0.95"/>
          <path id="Path_1889" data-name="Path 1889" d="M313.449,97.685l16.918-35L313.449,53.2Z" transform="translate(-280.391 -53.05)" opacity="0.1" fill="url(#radial-gradient)"/>
        </g>
        <g id="Group_589" data-name="Group 589" transform="translate(71.224 73.606)">
          <path id="Path_1890" data-name="Path 1890" d="M247.7,175.644l-32.779-29.957-32.778,67.806,13.331-7.7v68.992l38.9-22.456V183.34Z" transform="translate(-182.147 -145.687)" fill="url(#linear-gradient)"/>
          <path id="Path_1891" data-name="Path 1891" d="M198.932,290.363l17.2,9.638V231.009l-17.2-9.638Z" transform="translate(-185.601 -161.261)" fill="#a0caeb"/>
          <path id="Path_1892" data-name="Path 1892" d="M269.357,187.779l-32.779-29.957L203.8,225.628l13.331-7.7V286.92l38.9-22.456V195.476Z" transform="translate(-186.603 -148.184)" fill="#d1ebff"/>
          <path id="Path_1893" data-name="Path 1893" d="M237.057,160.307l30.893,28.285,1.408-.813L236.58,157.822,203.8,225.628l2.026-1.169Z" transform="translate(-186.603 -148.184)" fill="#82a6c1"/>
          <path id="Path_1894" data-name="Path 1894" d="M239.6,273.063v23.989l12.36-7.136V265.927Z" transform="translate(-193.97 -170.43)" fill="#82a6c1"/>
          <path id="Path_1895" data-name="Path 1895" d="M239.6,240.251V258l12.36-7.136v-17.75Z" transform="translate(-193.97 -163.678)" fill="#82a6c1"/>
          <path id="Path_1896" data-name="Path 1896" d="M239.6,207.011V224.76l12.36-7.136V199.875Z" transform="translate(-193.97 -156.838)" fill="#82a6c1"/>
          <path id="Path_1897" data-name="Path 1897" d="M182.147,213.493l17.2,9.638,32.778-67.806-17.2-9.638Z" transform="translate(-182.147 -145.687)" fill="#3879ac"/>
          <path id="Path_1898" data-name="Path 1898" d="M239.6,273.063v23.989l12.36-7.137V265.927Zm9.438,15.24-8.464,4.887V273.7l8.464-4.887Z" transform="translate(-193.97 -170.43)" fill="url(#linear-gradient-2)"/>
          <path id="Path_1899" data-name="Path 1899" d="M250.418,266.817V289.1L239.6,295.35v1.7l12.361-7.136V265.927Z" transform="translate(-193.97 -170.43)" fill="#fff" opacity="0.95"/>
          <path id="Path_1900" data-name="Path 1900" d="M239.6,207.011V224.76l12.36-7.136V199.875Zm.974.638,3.707-2.14v13.249l-3.707,2.14Zm8.464,8.363-3.526,2.036V204.8l3.526-2.036Z" transform="translate(-193.97 -156.838)" fill="url(#linear-gradient-3)"/>
          <path id="Path_1901" data-name="Path 1901" d="M239.6,240.251V258l12.36-7.136v-17.75Zm.974.638,3.707-2.14V252l-3.707,2.14Zm8.464,8.362-3.526,2.036V238.038L249.038,236Z" transform="translate(-193.97 -163.678)" fill="url(#linear-gradient-3)"/>
          <g id="Group_588" data-name="Group 588" transform="translate(45.606 118.651)">
            <path id="Path_1902" data-name="Path 1902" d="M243.135,305.4v1.474L255.66,299.7v-1.474Z" transform="translate(-240.303 -295.728)" fill="#ced3f4"/>
            <path id="Path_1903" data-name="Path 1903" d="M246.67,309.3v1.8l12.524-7.176v-1.8Z" transform="translate(-241.03 -296.53)" fill="#ced3f4"/>
            <path id="Path_1904" data-name="Path 1904" d="M243.1,307.193l2.841,1.671,12.515-7.176-2.859-1.681Z" transform="translate(-240.297 -296.094)" fill="url(#linear-gradient-4)"/>
            <path id="Path_1905" data-name="Path 1905" d="M239.569,303.084l2.841,1.671,12.515-7.176-4.526-2.5-10.811,6.292Z" transform="translate(-239.569 -295.08)" fill="url(#linear-gradient-13)"/>
          </g>
          <path id="Path_1906" data-name="Path 1906" d="M245.265,311.678V311.4l-.038-.042v-1.434l-2.808-1.651v-1.444l-2.808-1.651v3.327Z" transform="translate(-193.972 -178.508)" fill="#afb6e5"/>
          <path id="Path_1907" data-name="Path 1907" d="M250.418,234v16.047L239.6,256.3V258l12.361-7.136v-17.75Z" transform="translate(-193.97 -163.678)" fill="#fff" opacity="0.95"/>
          <path id="Path_1908" data-name="Path 1908" d="M250.418,200.765v16.047L239.6,223.058v1.7l12.361-7.136V199.875Z" transform="translate(-193.97 -156.838)" fill="#fff" opacity="0.95"/>
        </g>
        <g id="Group_591" data-name="Group 591" transform="translate(0 140.5)">
          <path id="Path_1909" data-name="Path 1909" d="M158.025,259.871l-32.778-29.957L92.468,297.72l13.331-7.7v43.014l38.9-22.456V267.567Z" transform="translate(-92.468 -229.914)" fill="url(#linear-gradient)"/>
          <path id="Path_1910" data-name="Path 1910" d="M109.253,348.612l17.2,9.638V315.236l-17.2-9.638Z" transform="translate(-95.922 -245.488)" fill="#a0caeb"/>
          <path id="Path_1911" data-name="Path 1911" d="M179.679,272.006,146.9,242.049l-32.778,67.806,13.331-7.7v43.014l38.9-22.456V279.7Z" transform="translate(-96.924 -232.411)" fill="#d1ebff"/>
          <path id="Path_1912" data-name="Path 1912" d="M147.378,244.534l30.893,28.285,1.408-.813L146.9,242.049l-32.778,67.806,2.026-1.17Z" transform="translate(-96.924 -232.411)" fill="#82a6c1"/>
          <path id="Path_1913" data-name="Path 1913" d="M149.922,324.581V348.57l12.361-7.136v-23.99Z" transform="translate(-104.291 -247.926)" fill="#82a6c1"/>
          <path id="Path_1914" data-name="Path 1914" d="M149.922,290.42v17.749l12.361-7.136V283.284Z" transform="translate(-104.291 -240.897)" fill="#82a6c1"/>
          <path id="Path_1915" data-name="Path 1915" d="M92.468,297.72l17.2,9.638,32.778-67.806-17.2-9.638Z" transform="translate(-92.468 -229.914)" fill="#3879ac"/>
          <path id="Path_1916" data-name="Path 1916" d="M149.922,324.581V348.57l12.36-7.136V317.445Zm9.438,15.24-8.464,4.887V325.219l8.464-4.887Z" transform="translate(-104.291 -247.926)" fill="url(#linear-gradient-2)"/>
          <path id="Path_1917" data-name="Path 1917" d="M160.74,318.335v22.286l-10.818,6.246v1.7l12.361-7.136V317.444Z" transform="translate(-104.291 -247.926)" fill="#fff" opacity="0.95"/>
          <path id="Path_1918" data-name="Path 1918" d="M149.922,290.42v17.749l12.36-7.136V283.284Zm.974.639,3.652-2.109V302.2l-3.652,2.109Zm8.464,8.362-3.581,2.067V288.239l3.581-2.067Z" transform="translate(-104.291 -240.897)" fill="url(#linear-gradient-3)"/>
          <path id="Path_1919" data-name="Path 1919" d="M160.74,284.175v16.047l-10.818,6.246v1.7l12.361-7.136V283.284Z" transform="translate(-104.291 -240.897)" fill="#fff" opacity="0.95"/>
          <g id="Group_590" data-name="Group 590" transform="translate(45.606 92.672)">
            <path id="Path_1920" data-name="Path 1920" d="M153.456,356.919v1.474l12.524-7.176v-1.474Z" transform="translate(-150.624 -347.245)" fill="#ced3f4"/>
            <path id="Path_1921" data-name="Path 1921" d="M156.992,360.817v1.8l12.524-7.176v-1.8Z" transform="translate(-151.352 -348.047)" fill="#ced3f4"/>
            <path id="Path_1922" data-name="Path 1922" d="M153.426,358.711l2.841,1.671,12.515-7.176-2.859-1.681Z" transform="translate(-150.618 -347.612)" fill="url(#linear-gradient-4)"/>
            <path id="Path_1923" data-name="Path 1923" d="M149.891,354.6l2.841,1.671,12.515-7.176-4.526-2.5-10.811,6.292Z" transform="translate(-149.891 -346.598)" fill="url(#linear-gradient-18)"/>
          </g>
          <path id="Path_1924" data-name="Path 1924" d="M155.586,363.2v-.274l-.038-.042V361.45L152.74,359.8v-1.445l-2.808-1.651v3.327Z" transform="translate(-104.294 -256.004)" fill="#afb6e5"/>
        </g>
        <path id="Path_1925" data-name="Path 1925" d="M223.449,190.685l16.918-35L223.449,146.2Z" transform="translate(-119.422 -72.188)" opacity="0.1" fill="url(#radial-gradient-2)"/>
        <path id="Path_1926" data-name="Path 1926" d="M330.3,236.308l9.063-18.749-9.063,5.295Z" transform="translate(-141.411 -86.872)" fill="url(#radial-gradient-3)"/>
        <path id="Path_1927" data-name="Path 1927" d="M240.971,287.642l9.063-18.749-9.063,5.3Z" transform="translate(-123.028 -97.435)" fill="url(#radial-gradient-3)"/>
        <path id="Path_1928" data-name="Path 1928" d="M151.3,339.308l9.063-18.749-9.063,5.3Z" transform="translate(-104.576 -108.067)" fill="url(#radial-gradient-3)"/>
        <path id="Path_1929" data-name="Path 1929" d="M133.783,275.352l16.918-35-16.918-9.481Z" transform="translate(-100.97 -89.611)" opacity="0.1" fill="url(#radial-gradient-2)"/>
      </g>
    </g>
    <g id="Group_608" data-name="Group 608" transform="translate(1572.811 -528.388)">
      <path id="Path_1933" data-name="Path 1933" d="M426.3,256.454l-169.388,97.8L120.189,275.31l169.388-97.8Z" fill="#54aaee"/>
      <path id="Path_1935" data-name="Path 1935" d="M262.973,308.435h-85.41L120.189,275.31l88.574-51.138Z" fill="url(#linear-gradient-19)"/>
      <g id="Group_607" data-name="Group 607">
        <path id="Path_1936" data-name="Path 1936" d="M228.932,106.431l74.9,43.291V284.845l-74.9-43.291Z" fill="#d1ebff"/>
        <path id="Path_1937" data-name="Path 1937" d="M188.072,265.145v-34.26l74.9,43.291v34.26Z" fill="#d1ebff"/>
        <g id="Group_593" data-name="Group 593">
          <path id="Path_1938" data-name="Path 1938" d="M253.355,290.707V265.058l-10.481-6.051v25.649Z" fill="#fff"/>
          <path id="Path_1939" data-name="Path 1939" d="M244.726,262.214l6.778,3.913V287.5l-6.778-3.913Z" fill="#3879ac"/>
          <path id="Path_1940" data-name="Path 1940" d="M251.5,281.131l-6.777-6.245v-9L251.5,269.8Z" fill="url(#linear-gradient-20)"/>
          <path id="Path_1941" data-name="Path 1941" d="M253.355,290.707l1.559-.9V264.158l-1.559.9Z" fill="#c5baeb"/>
          <path id="Path_1942" data-name="Path 1942" d="M244.726,283.587l1.559-.9V263.114l-1.559-.9Z" fill="#c5baeb"/>
          <path id="Path_1943" data-name="Path 1943" d="M242.874,259.007l1.559-.9,10.481,6.051-1.559.9Z" fill="#d7d1eb"/>
          <path id="Path_1944" data-name="Path 1944" d="M244.726,283.587l1.559-.9L251.5,285.7v1.8Z" fill="#d7d1eb"/>
        </g>
        <g id="Group_594" data-name="Group 594">
          <path id="Path_1945" data-name="Path 1945" d="M229.045,276.714V251.065l-10.481-6.051v25.649Z" fill="#fff"/>
          <path id="Path_1946" data-name="Path 1946" d="M220.416,248.221l6.777,3.913v21.373l-6.777-3.913Z" fill="#3879ac"/>
          <path id="Path_1947" data-name="Path 1947" d="M227.193,266.632l-6.777-6.245v-9l6.777,3.913Z" fill="url(#linear-gradient-21)"/>
          <path id="Path_1948" data-name="Path 1948" d="M229.045,276.714l1.559-.9V250.165l-1.559.9Z" fill="#c5baeb"/>
          <path id="Path_1949" data-name="Path 1949" d="M220.416,269.594l1.559-.9V249.121l-1.559-.9Z" fill="#c5baeb"/>
          <path id="Path_1950" data-name="Path 1950" d="M218.564,245.014l1.559-.9,10.481,6.051-1.559.9Z" fill="#d7d1eb"/>
          <path id="Path_1951" data-name="Path 1951" d="M220.416,269.593l1.559-.9,5.218,3.013v1.8Z" fill="#d7d1eb"/>
        </g>
        <g id="Group_595" data-name="Group 595">
          <path id="Path_1952" data-name="Path 1952" d="M204.7,262.72V237.071l-10.481-6.051v25.649Z" fill="#fff"/>
          <path id="Path_1953" data-name="Path 1953" d="M196.073,234.227l6.778,3.913v21.373l-6.778-3.913Z" fill="#3879ac"/>
          <path id="Path_1954" data-name="Path 1954" d="M202.851,252.983l-6.777-6.245v-9l6.777,3.913Z" fill="url(#linear-gradient-22)"/>
          <path id="Path_1955" data-name="Path 1955" d="M204.7,262.72l1.559-.9V236.171l-1.559.9Z" fill="#c5baeb"/>
          <path id="Path_1956" data-name="Path 1956" d="M196.073,255.6l1.559-.9V235.127l-1.559-.9Z" fill="#c5baeb"/>
          <path id="Path_1957" data-name="Path 1957" d="M194.221,231.02l1.559-.9,10.481,6.051-1.559.9Z" fill="#d7d1eb"/>
          <path id="Path_1958" data-name="Path 1958" d="M196.073,255.6l1.559-.9,5.218,3.013v1.8Z" fill="#d7d1eb"/>
        </g>
        <g id="Group_596" data-name="Group 596">
          <path id="Path_1959" data-name="Path 1959" d="M295.169,186.29V160.641l-10.481-6.051v25.649Z" fill="#fff"/>
          <path id="Path_1960" data-name="Path 1960" d="M286.54,157.8l6.777,3.913v21.373l-6.777-3.913Z" fill="#3879ac"/>
          <path id="Path_1961" data-name="Path 1961" d="M293.318,173.046,286.54,166.8v-9l6.777,3.913Z" fill="url(#linear-gradient-23)"/>
          <path id="Path_1962" data-name="Path 1962" d="M295.169,186.29l1.559-.9V159.741l-1.559.9Z" fill="#c5baeb"/>
          <path id="Path_1963" data-name="Path 1963" d="M286.54,179.17l1.559-.9V158.7l-1.559-.9Z" fill="#c5baeb"/>
          <path id="Path_1964" data-name="Path 1964" d="M284.688,154.59l1.559-.9,10.481,6.051-1.559.9Z" fill="#d7d1eb"/>
          <path id="Path_1965" data-name="Path 1965" d="M286.54,179.17l1.559-.9,5.218,3.013v1.8Z" fill="#d7d1eb"/>
        </g>
        <g id="Group_597" data-name="Group 597">
          <path id="Path_1966" data-name="Path 1966" d="M270.859,172.3V146.648L260.378,140.6v25.649Z" fill="#fff"/>
          <path id="Path_1967" data-name="Path 1967" d="M262.23,143.8l6.777,3.913V169.09l-6.777-3.913Z" fill="#3879ac"/>
          <path id="Path_1968" data-name="Path 1968" d="M269.007,159.053l-6.777-6.245v-9l6.777,3.913Z" fill="url(#linear-gradient-24)"/>
          <path id="Path_1969" data-name="Path 1969" d="M270.859,172.3l1.559-.9V145.747l-1.559.9Z" fill="#c5baeb"/>
          <path id="Path_1970" data-name="Path 1970" d="M262.23,165.177l1.559-.9V144.7l-1.559-.9Z" fill="#c5baeb"/>
          <path id="Path_1971" data-name="Path 1971" d="M260.378,140.6l1.559-.9,10.481,6.051-1.559.9Z" fill="#d7d1eb"/>
          <path id="Path_1972" data-name="Path 1972" d="M262.23,165.176l1.559-.9,5.218,3.013v1.8Z" fill="#d7d1eb"/>
        </g>
        <g id="Group_598" data-name="Group 598">
          <path id="Path_1973" data-name="Path 1973" d="M246.516,158.3V132.654L236.035,126.6v25.649Z" fill="#fff"/>
          <path id="Path_1974" data-name="Path 1974" d="M237.887,129.81l6.777,3.913V155.1l-6.777-3.913Z" fill="#3879ac"/>
          <path id="Path_1975" data-name="Path 1975" d="M244.664,145.059l-6.777-6.245v-9l6.777,3.913Z" fill="url(#linear-gradient-25)"/>
          <path id="Path_1976" data-name="Path 1976" d="M246.516,158.3l1.559-.9V131.754l-1.559.9Z" fill="#c5baeb"/>
          <path id="Path_1977" data-name="Path 1977" d="M237.887,151.183l1.559-.9V130.71l-1.559-.9Z" fill="#c5baeb"/>
          <path id="Path_1978" data-name="Path 1978" d="M236.035,126.6l1.559-.9,10.481,6.051-1.559.9Z" fill="#d7d1eb"/>
          <path id="Path_1979" data-name="Path 1979" d="M237.887,151.183l1.559-.9,5.218,3.013v1.8Z" fill="#d7d1eb"/>
        </g>
        <path id="Path_1980" data-name="Path 1980" d="M303.832,284.845V206.628l-40.859,67.547v34.26Z" fill="#eef7ff"/>
        <path id="Path_1981" data-name="Path 1981" d="M303.832,284.845V149.713l40.859,20.367v91.175Z" fill="#eef7ff"/>
        <g id="Group_599" data-name="Group 599">
          <path id="Path_1982" data-name="Path 1982" d="M308.8,189.766V164.117l10.481-6.051v25.649Z" fill="#fff"/>
          <path id="Path_1983" data-name="Path 1983" d="M317.434,182.646l-6.778,3.913V165.186l6.778-3.913Z" fill="#3879ac"/>
          <path id="Path_1984" data-name="Path 1984" d="M310.656,176.522l6.777-6.245v-9l-6.777,3.913Z" fill="url(#linear-gradient-26)"/>
          <path id="Path_1985" data-name="Path 1985" d="M308.8,189.766l-1.559-.9V163.217l1.559.9Z" fill="#c5baeb"/>
          <path id="Path_1986" data-name="Path 1986" d="M317.434,182.646l-1.559-.9V162.173l1.559-.9Z" fill="#c5baeb"/>
          <path id="Path_1987" data-name="Path 1987" d="M319.285,158.066l-1.559-.9-10.481,6.051,1.559.9Z" fill="#d7d1eb"/>
          <path id="Path_1988" data-name="Path 1988" d="M317.434,182.645l-1.559-.9-5.218,3.013v1.8Z" fill="#d7d1eb"/>
        </g>
        <path id="Path_1989" data-name="Path 1989" d="M259.378,272.551v7.586l44.454-73.49V199.06Z" fill="#4996d2"/>
        <path id="Path_1990" data-name="Path 1990" d="M348.286,164.321v7.586l-44.454-22.159v-7.586Z" fill="#4996d2"/>
        <path id="Path_1991" data-name="Path 1991" d="M228.932,155.77l74.9,43.291-44.454,73.49-74.9-43.291Z" fill="#54aaee"/>
        <path id="Path_1992" data-name="Path 1992" d="M184.477,236.846l74.9,43.291v-7.586l-74.9-43.291Z" fill="#3879ac"/>
        <path id="Path_1993" data-name="Path 1993" d="M228.932,98.871l74.9,43.291v7.586l-74.9-43.291Z" fill="#3879ac"/>
        <path id="Path_1994" data-name="Path 1994" d="M246.356,233.273l2.538-1.466,3.88-6.826-6.419,2.545Z" fill="url(#linear-gradient-27)"/>
        <path id="Path_1995" data-name="Path 1995" d="M246.821,228.464l5.953-3.482,9.123-15.749-15.077,8.819Z" fill="#4996d2"/>
        <path id="Path_1996" data-name="Path 1996" d="M232.82,195.047,219.284,206.69v10.952l27.072,15.63V222.321Z" fill="url(#linear-gradient-28)"/>
        <g id="Group_600" data-name="Group 600">
          <path id="Path_1997" data-name="Path 1997" d="M237.089,225.432v-13.2l-10.481-6.051v13.2Z" fill="#fff"/>
          <path id="Path_1998" data-name="Path 1998" d="M228.46,209.385l6.777,3.913v8.926l-6.777-3.912Z" fill="#82a6c1"/>
          <path id="Path_1999" data-name="Path 1999" d="M228.46,212.067l6.777,6.245V213.3l-6.777-3.913Z" fill="url(#linear-gradient-29)"/>
          <path id="Path_2000" data-name="Path 2000" d="M237.089,225.432l1.559-.9v-13.2l-1.559.9Z" fill="#c5baeb"/>
          <path id="Path_2001" data-name="Path 2001" d="M228.46,218.312l1.559-.9v-7.127l-1.559-.9Z" fill="#c5baeb"/>
          <path id="Path_2002" data-name="Path 2002" d="M226.608,206.178l1.559-.9,10.481,6.051-1.559.9Z" fill="#d7d1eb"/>
          <path id="Path_2003" data-name="Path 2003" d="M228.46,218.311l1.559-.9,5.218,3.013v1.8Z" fill="#d7d1eb"/>
        </g>
        <path id="Path_2004" data-name="Path 2004" d="M233.569,191.35l-15.134,13.017.006,6.1,13.63-11.724,14.75,29.719v-10.41Z" fill="#3879ac"/>
        <path id="Path_2005" data-name="Path 2005" d="M261.9,174.823,233.569,191.35l13.252,26.7,15.077-8.819Z" fill="#5eb8ff"/>
        <g id="Group_601" data-name="Group 601">
          <path id="Path_2006" data-name="Path 2006" d="M308.8,275.854V250.2l10.481-6.051V269.8Z" fill="#fff"/>
          <path id="Path_2007" data-name="Path 2007" d="M317.434,268.734l-6.778,3.913V251.274l6.778-3.913Z" fill="#3879ac"/>
          <path id="Path_2008" data-name="Path 2008" d="M310.656,262.61l6.777-6.245v-9l-6.777,3.913Z" fill="url(#linear-gradient-26)"/>
          <path id="Path_2009" data-name="Path 2009" d="M308.8,275.854l-1.559-.9V249.3l1.559.9Z" fill="#c5baeb"/>
          <path id="Path_2010" data-name="Path 2010" d="M317.434,268.734l-1.559-.9V248.261l1.559-.9Z" fill="#c5baeb"/>
          <path id="Path_2011" data-name="Path 2011" d="M319.285,244.153l-1.559-.9L307.245,249.3l1.559.9Z" fill="#d7d1eb"/>
          <path id="Path_2012" data-name="Path 2012" d="M317.434,268.733l-1.559-.9-5.218,3.013v1.8Z" fill="#d7d1eb"/>
        </g>
        <g id="Group_602" data-name="Group 602">
          <path id="Path_2013" data-name="Path 2013" d="M308.8,232.844V207.2l33.086-19.326v25.649Z" fill="#fff"/>
          <path id="Path_2014" data-name="Path 2014" d="M340.039,212.45l-29.383,17.187V208.264l29.383-17.187Z" fill="#3879ac"/>
          <path id="Path_2015" data-name="Path 2015" d="M340.039,197.1v-6.021l-29.383,17.188v15.908Z" fill="url(#linear-gradient-31)"/>
          <path id="Path_2016" data-name="Path 2016" d="M308.8,232.844l-1.559-.9V206.295l1.559.9Z" fill="#c5baeb"/>
          <path id="Path_2017" data-name="Path 2017" d="M340.039,212.45l-1.559-.9V191.977l1.559-.9Z" fill="#c5baeb"/>
          <path id="Path_2018" data-name="Path 2018" d="M341.89,187.869l-1.559-.9L307.245,206.3l1.559.9Z" fill="#d7d1eb"/>
          <path id="Path_2019" data-name="Path 2019" d="M340.039,212.449l-1.559-.9-27.824,16.288v1.8Z" fill="#d7d1eb"/>
        </g>
        <g id="Group_603" data-name="Group 603">
          <path id="Path_2020" data-name="Path 2020" d="M333.115,261.86V236.211L343.6,230.16v25.649Z" fill="#fff"/>
          <path id="Path_2021" data-name="Path 2021" d="M341.744,254.74l-6.777,3.913V237.28l6.777-3.913Z" fill="#3879ac"/>
          <path id="Path_2022" data-name="Path 2022" d="M334.967,248.616l6.777-6.245v-9l-6.777,3.913Z" fill="url(#linear-gradient-26)"/>
          <path id="Path_2023" data-name="Path 2023" d="M333.115,261.86l-1.559-.9V235.311l1.559.9Z" fill="#c5baeb"/>
          <path id="Path_2024" data-name="Path 2024" d="M341.744,254.74l-1.559-.9V234.267l1.559-.9Z" fill="#c5baeb"/>
          <path id="Path_2025" data-name="Path 2025" d="M343.6,230.16l-1.559-.9-10.481,6.051,1.559.9Z" fill="#d7d1eb"/>
          <path id="Path_2026" data-name="Path 2026" d="M341.744,254.74l-1.559-.9-5.218,3.013v1.8Z" fill="#d7d1eb"/>
        </g>
        <path id="Path_2027" data-name="Path 2027" d="M273.386,121.03l74.9,43.291-44.454-22.159-74.9-43.291Z" fill="url(#linear-gradient-33)"/>
        <g id="Group_604" data-name="Group 604">
          <path id="Path_2028" data-name="Path 2028" d="M321.739,250.654V276.3l1.852-1.069V251.724l6.777-3.913v23.511l1.852-1.069V244.6Z" fill="#fff"/>
          <path id="Path_2029" data-name="Path 2029" d="M330.368,271.323l-6.777,3.913V251.724l6.777-3.913Z" fill="url(#linear-gradient-34)"/>
          <path id="Path_2030" data-name="Path 2030" d="M330.026,260.632c0-.692-.421-1.011-.941-.711a2.253,2.253,0,0,0-.941,1.8c0,.693.421,1.011.941.711a2.253,2.253,0,0,0,.941-1.8Z" fill="#fff"/>
          <path id="Path_2031" data-name="Path 2031" d="M321.739,276.3l-1.559-.9V249.755l1.559.9Z" fill="#c5baeb"/>
          <path id="Path_2032" data-name="Path 2032" d="M332.22,244.6l-1.559-.9-10.481,6.051,1.559.9Z" fill="#d7d1eb"/>
        </g>
        <g id="Group_605" data-name="Group 605">
          <path id="Path_2033" data-name="Path 2033" d="M274.026,278.151V303.8l1.852-1.069V279.22l21.779-12.62v23.511l1.852-1.069V263.394Z" fill="#fff"/>
          <path id="Path_2034" data-name="Path 2034" d="M297.656,290.114l-21.778,12.619V279.22l21.778-12.62Z" fill="url(#linear-gradient-34)"/>
          <path id="Path_2035" data-name="Path 2035" d="M274.026,303.8l-1.559-.9V277.251l1.559.9Z" fill="#c5baeb"/>
          <path id="Path_2036" data-name="Path 2036" d="M299.508,263.394l-1.559-.9-25.482,14.757,1.559.9Z" fill="#d7d1eb"/>
        </g>
        <g id="Group_606" data-name="Group 606">
          <path id="Path_2037" data-name="Path 2037" d="M275.878,281.051l21.779-12.574v.655l-21.779,12.574Z" fill="#c5baeb"/>
          <path id="Path_2038" data-name="Path 2038" d="M275.878,283.445l21.779-12.574v.655L275.878,284.1Z" fill="#c5baeb"/>
          <path id="Path_2039" data-name="Path 2039" d="M275.878,285.839l21.779-12.574v.655l-21.779,12.574Z" fill="#c5baeb"/>
          <path id="Path_2040" data-name="Path 2040" d="M275.878,288.233l21.779-12.574v.655l-21.779,12.574Z" fill="#c5baeb"/>
          <path id="Path_2041" data-name="Path 2041" d="M275.878,290.626l21.779-12.574v.655l-21.779,12.574Z" fill="#c5baeb"/>
          <path id="Path_2042" data-name="Path 2042" d="M275.878,293.02l21.779-12.574v.655l-21.779,12.574Z" fill="#c5baeb"/>
          <path id="Path_2043" data-name="Path 2043" d="M275.878,295.414l21.779-12.574v.655l-21.779,12.574Z" fill="#c5baeb"/>
          <path id="Path_2044" data-name="Path 2044" d="M275.878,297.808l21.779-12.574v.655l-21.779,12.574Z" fill="#c5baeb"/>
          <path id="Path_2045" data-name="Path 2045" d="M275.878,300.2l21.779-12.574v.655l-21.779,12.574Z" fill="#c5baeb"/>
        </g>
      </g>
      <path id="Path_2046" data-name="Path 2046" d="M120.189,275.31v5.184l136.727,78.94V354.25Z" fill="#3879ac"/>
      <path id="Path_2047" data-name="Path 2047" d="M256.916,354.25,426.3,256.45v5.184l-169.388,97.8Z" fill="#4996d2"/>
    </g>
  </g>
</svg>
