<svg id="Flat" height="512" viewBox="0 0 512 512" width="512" xmlns="http://www.w3.org/2000/svg"><g><rect fill="#4dccff" height="192" rx="20" width="464" x="24" y="16"/><g fill="#25b1fa"><path d="m64 104h16v16h-16z"/><path d="m432 104h16v16h-16z"/></g><path d="m76 144h164a0 0 0 0 1 0 0v64a0 0 0 0 1 0 0h-184a0 0 0 0 1 0 0v-44a20 20 0 0 1 20-20z" fill="#f5f5f5"/><path d="m272 144h184a0 0 0 0 1 0 0v64a0 0 0 0 1 0 0h-164a20 20 0 0 1 -20-20v-44a0 0 0 0 1 0 0z" fill="#f5f5f5" transform="matrix(-1 0 0 -1 728 352)"/><g fill="#e6e6e6"><path d="m56 168h184v16h-184z"/><path d="m272 168h184v16h-184z"/></g><path d="m56 16h400a0 0 0 0 1 0 0v12a20 20 0 0 1 -20 20h-360a20 20 0 0 1 -20-20v-12a0 0 0 0 1 0 0z" fill="#25b1fa"/><rect fill="#f5f5f5" height="32" rx="16" width="96" x="208" y="80"/><g fill="#b3e9ff"><path d="m80 496a48 48 0 0 1 0-96v16a32 32 0 1 0 32 32v-144h16v144a48.055 48.055 0 0 1 -48 48z"/><path d="m192 344a40.045 40.045 0 0 1 -40-40v-64h16v64a24 24 0 1 0 24-24v-16a40 40 0 0 1 0 80z"/><path d="m112 272h16v16h-16z"/><path d="m112 240h16v16h-16z"/><path d="m32 280h16v16h-16z"/><path d="m48 320h16v16h-16z"/><path d="m464 280h16v16h-16z"/><path d="m448 320h16v16h-16z"/><path d="m80 240h16v104h-16z"/><path d="m80 360h16v16h-16z"/><path d="m152 360h16v104h-16z"/><path d="m152 480h16v16h-16z"/><path d="m200 392h16v104h-16z"/><path d="m200 360h16v16h-16z"/><path d="m304 272h16v64h-16z"/><path d="m304 240h16v16h-16z"/><path d="m432 496a48.055 48.055 0 0 1 -48-48v-144h16v144a32 32 0 1 0 32-32v-16a48 48 0 0 1 0 96z"/><path d="m328 448a40 40 0 0 1 0-80v16a24 24 0 1 0 24 24v-88h16v88a40.045 40.045 0 0 1 -40 40z"/><path d="m384 272h16v16h-16z"/><path d="m352 288h16v16h-16z"/><path d="m384 240h16v16h-16z"/><path d="m416 240h16v104h-16z"/><path d="m416 360h16v16h-16z"/><path d="m296 464h16v32h-16z"/><path d="m344 456h16v16h-16z"/><path d="m352 240h16v32h-16z"/><path d="m248 240h16v112h-16z"/><path d="m248 368h16v16h-16z"/><path d="m256 480a24.027 24.027 0 0 1 -24-24h16a8 8 0 1 0 8-8 8 8 0 0 1 -8-8v-40h16v33.371a24 24 0 0 1 -8 46.629z"/><path d="m280 344h16v16h-16z"/></g></g></svg>