<svg id="line_color" height="512" viewBox="0 0 74 74" width="512" xmlns="http://www.w3.org/2000/svg" data-name="line color"><circle cx="38.087" cy="36.435" fill="#fe7058" r="34"/><path d="m69.047 22.384a34 34 0 0 0 -45.011-16.91c-.718.326-1.413.681-2.1 1.05a33.994 33.994 0 0 1 27.174 62.076c1.017-.35 2.028-.746 3.028-1.2a34 34 0 0 0 16.909-45.016z" fill="#ea6453"/><g fill="#323c6b"><path d="m6.157 48.612a.5.5 0 0 1 -.477-.651c3.594-11.368 13.073-21.483 25.358-27.061s26.139-6.05 37.062-1.27a.5.5 0 0 1 -.4.916c-10.666-4.669-24.216-4.195-36.247 1.264s-21.31 15.351-24.82 26.453a.5.5 0 0 1 -.476.349z"/><path d="m52.137 67.9a.5.5 0 0 1 -.487-.389c-6.34-27.676-17.589-50.291-30.091-60.499a.5.5 0 1 1 .632-.774c12.857 10.5 23.95 32.748 30.434 61.046a.5.5 0 0 1 -.375.6.49.49 0 0 1 -.113.016z"/><path d="m28.433 69.536a.5.5 0 0 1 -.35-.143c-.1-.1-10.26-10.213-6.14-21.775a26.793 26.793 0 0 0 1.59-10.324 22.153 22.153 0 0 0 -3.708-11.113c-5.225-7.71-11.771-4.518-11.836-4.481a.5.5 0 1 1 -.451-.892c.074-.037 7.4-3.613 13.115 4.817a23.157 23.157 0 0 1 3.878 11.614 27.814 27.814 0 0 1 -1.646 10.719c-3.908 10.965 5.8 20.628 5.9 20.724a.5.5 0 0 1 -.349.858z"/><path d="m68.98 51.134a.5.5 0 0 1 -.5-.472c-.007-.138-.9-13.811-11.715-18.084a27.837 27.837 0 0 1 -9.151-5.82 23.15 23.15 0 0 1 -6.189-10.565c-2.58-9.834 4.683-13.209 4.757-13.242a.5.5 0 0 1 .409.913c-.269.121-6.558 3.083-4.2 12.075a22.153 22.153 0 0 0 5.924 10.107 26.786 26.786 0 0 0 8.816 5.6c11.415 4.511 12.339 18.814 12.346 18.958a.5.5 0 0 1 -.471.527z"/><path d="m38.1 70.953a34.536 34.536 0 1 1 14.241-3.1 34.51 34.51 0 0 1 -14.241 3.1zm-.029-68.036a33.586 33.586 0 1 0 11.8 2.158 33.412 33.412 0 0 0 -11.8-2.158z"/></g><path d="m39.061 66.471a34.275 34.275 0 0 1 -8.415-.57.65.65 0 1 1 .266-1.272 35.732 35.732 0 0 0 10.456.371.65.65 0 1 1 .129 1.293c-.726.072-1.549.137-2.436.178z" fill="#fff"/><path d="m44.763 65.7a.65.65 0 0 1 -.169-1.284c.674-.149 1.351-.32 2.011-.511a.65.65 0 0 1 .36 1.25c-.686.2-1.39.376-2.091.531a.7.7 0 0 1 -.111.014z" fill="#fff"/><path d="m65.208 62a.5.5 0 0 1 -.392-.81q.452-.572.885-1.157a.5.5 0 1 1 .8.593c-.294.4-.6.793-.9 1.184a.5.5 0 0 1 -.393.19z" fill="#323c6b"/><path d="m55.175 69.743a.5.5 0 0 1 -.232-.943 36.287 36.287 0 0 0 8.336-5.986.5.5 0 1 1 .692.722 37.325 37.325 0 0 1 -8.566 6.151.5.5 0 0 1 -.23.056z" fill="#323c6b"/><path d="m2.744 25.989a.5.5 0 0 1 -.478-.648q.325-1.053.716-2.094a37.781 37.781 0 0 1 3.191-6.509.5.5 0 1 1 .852.524 36.8 36.8 0 0 0 -3.107 6.338q-.38 1.012-.7 2.038a.5.5 0 0 1 -.474.351z" fill="#323c6b"/><path d="m8.563 14.625a.5.5 0 0 1 -.4-.8q.405-.537.827-1.059a.5.5 0 1 1 .778.629q-.413.508-.808 1.032a.5.5 0 0 1 -.397.198z" fill="#323c6b"/></svg>