<svg height="511pt" viewBox="-13 0 511 511.80163" width="511pt" xmlns="http://www.w3.org/2000/svg"><g fill="#b19046"><path d="m385.945312 14.109375 26.007813-5.011719c9.558594-1.773437 18.769531 4.457032 20.679687 13.992188 1.820313 9.566406-4.433593 18.804687-13.988281 20.671875l-26.007812 5.023437-104.007813 20.074219-26.003906 5.015625c-9.570312 1.820312-18.816406-4.429688-20.683594-13.992188-1.777344-9.558593 4.457032-18.769531 13.992188-20.675781l26.003906-5.023437zm0 0"/><path d="m79.847656 88.078125h-44.136718c-9.738282-.03125-17.625-7.917969-17.65625-17.65625.074218-9.71875 7.9375-17.582031 17.65625-17.65625h44.136718"/><path d="m150.46875 52.765625h44.140625c9.71875.074219 17.582031 7.9375 17.652344 17.65625-.027344 9.738281-7.914063 17.625-17.652344 17.65625h-44.140625"/></g><path d="m35.710938 88.078125c19.5 0 35.3125 15.808594 35.3125 35.308594v379.585937c0 4.875-3.953126 8.828125-8.828126 8.828125h-52.96875c-4.875 0-8.824218-3.953125-8.824218-8.828125v-379.585937c0-19.5 15.808594-35.308594 35.308594-35.308594zm0 0" fill="#f3d55b"/><path d="m35.710938 88.078125c9.75 0 17.65625 7.902344 17.65625 17.65625v401.652344c0 2.4375-1.976563 4.414062-4.414063 4.414062h-26.484375c-2.4375 0-4.414062-1.976562-4.414062-4.414062v-401.652344c0-9.753906 7.90625-17.65625 17.65625-17.65625zm0 0" fill="#e4c05c"/><path d="m229.917969 265.6875v237.285156c0 4.875-3.953125 8.828125-8.828125 8.828125h-52.964844c-4.875 0-8.828125-3.953125-8.828125-8.828125v-379.585937c0-19.5 15.808594-35.308594 35.3125-35.308594 19.5 0 35.308594 15.808594 35.308594 35.308594zm0 0" fill="#f3d55b"/><path d="m212.261719 265.6875v237.285156c0 4.855469-1.984375 8.828125-4.414063 8.828125h-26.480468c-2.429688 0-4.414063-3.972656-4.414063-8.828125v-379.585937c0-19.507813 7.898437-35.308594 17.65625-35.308594 4.851563 0 9.265625 3.972656 12.488281 10.328125 3.558594 7.839844 5.324219 16.375 5.164063 24.980469zm0 0" fill="#e4c05c"/><path d="m79.847656 35.113281h70.621094c9.75 0 17.65625 7.902344 17.65625 17.652344v35.3125c0 9.75-7.90625 17.65625-17.65625 17.65625h-70.621094c-9.75 0-17.652344-7.90625-17.652344-17.65625v-35.3125c0-9.75 7.902344-17.652344 17.652344-17.652344zm0 0" fill="#f3d55b"/><path d="m97.503906 35.113281h35.3125c9.75 0 17.652344 7.902344 17.652344 17.652344v35.3125c0 9.75-7.902344 17.65625-17.652344 17.65625h-35.3125c-9.75 0-17.65625-7.90625-17.65625-17.65625v-35.3125c0-9.75 7.90625-17.652344 17.65625-17.652344zm0 0" fill="#e4c05c"/><path d="m295.960938 13.671875 69.351562-13.347656c9.574219-1.84375 18.832031 4.425781 20.671875 14l6.675781 34.675781c1.84375 9.574219-4.425781 18.832031-14 20.671875l-69.351562 13.347656c-9.574219 1.84375-18.832032-4.421875-20.671875-14l-6.675781-34.675781c-1.84375-9.574219 4.425781-18.828125 14-20.671875zm0 0" fill="#f3d55b"/><path d="m315.960938 9.644531 31.144531-6.011719c9.574219-1.847656 18.832031 4.417969 20.679687 13.992188l6.691406 34.667969c1.847657 9.574219-4.414062 18.835937-13.988281 20.683593l-31.144531 6.007813c-9.574219 1.847656-18.832031-4.414063-20.679688-13.988281l-6.691406-34.671875c-1.847656-9.574219 4.417969-18.832031 13.988282-20.679688zm0 0" fill="#e4c05c"/><path d="m379.808594 233.910156 37.34375-99.132812c6.03125-15.910156 22.554687-25.253906 39.300781-22.226563 16.742187 3.027344 28.945313 17.566407 29.023437 34.582031.019532 4.285157-.761718 8.535157-2.296874 12.535157l-130.257813 346.414062c-1.292969 3.433594-4.574219 5.710938-8.246094 5.71875h-56.628906c-2.894531 0-5.609375-1.421875-7.257813-3.800781-1.648437-2.382812-2.023437-5.421875-1.003906-8.132812l83.429688-221.820313zm0 0" fill="#e4c05c"/><path d="m379.808594 233.910156 37.34375-99.132812c6.03125-15.910156 22.554687-25.253906 39.300781-22.226563 16.742187 3.027344 28.945313 17.566407 29.023437 34.582031.019532 4.285157-.761718 8.535157-2.296874 12.535157l-130.257813 346.414062c-1.292969 3.433594-4.574219 5.710938-8.246094 5.71875h-56.628906c-2.894531 0-5.609375-1.421875-7.257813-3.800781-1.648437-2.382812-2.023437-5.421875-1.003906-8.132812l83.429688-221.820313zm0 0" fill="#f3d55b"/><path d="m324.550781 511.800781c3.664063 0 6.949219-2.265625 8.253907-5.691406l133.871093-352.796875c.953125-2.4375 1.328125-5.070312 1.09375-7.679688-.472656-6.714843-4.808593-12.546874-11.105469-14.925781-2.054687-.753906-4.222656-1.140625-6.410156-1.140625-7.386718-.023437-14.007812 4.554688-16.59375 11.476563l-37.34375 99.046875-97.730468 259.777344c-1.019532 2.710937-.640626 5.75 1.007812 8.132812 1.648438 2.378906 4.359375 3.800781 7.257812 3.800781zm0 0" fill="#e4c05c"/><path d="m356.683594 285.460938c-23.894532 24-60.410156 30.136718-90.835938 15.273437-7.96875-3.832031-15.222656-8.996094-21.453125-15.273437-20.058593-20.058594-27.890625-49.292969-20.550781-76.691407 7.34375-27.402343 28.746094-48.800781 56.144531-56.144531 27.402344-7.339844 56.636719.492188 76.695313 20.550781 6.222656 6.238281 11.382812 13.453125 15.269531 21.363281 14.863281 30.457032 8.726563 66.992188-15.269531 90.921876zm0 0" fill="#e64c3c"/><path d="m371.953125 194.539062-106.105469 106.195313c-7.96875-3.832031-15.222656-8.996094-21.453125-15.273437-6.535156-6.527344-11.882812-14.144532-15.800781-22.507813l105.667969-105.578125c8.335937 3.917969 15.925781 9.265625 22.421875 15.800781 6.222656 6.238281 11.382812 13.453125 15.269531 21.363281zm0 0" fill="#c03a2b"/><path d="m233.246094 280.464844c-3.570313 0-6.789063-2.152344-8.152344-5.449219-1.367188-3.296875-.613281-7.09375 1.910156-9.617187l6.242188-6.242188c3.445312-3.449219 9.039062-3.453125 12.488281-.003906 3.449219 3.445312 3.449219 9.035156.003906 12.484375l-6.25 6.242187c-1.65625 1.65625-3.902343 2.585938-6.242187 2.585938zm24.972656-24.972656c-3.570312 0-6.789062-2.152344-8.152344-5.449219-1.367187-3.296875-.613281-7.09375 1.910156-9.617188l6.242188-6.242187c3.464844-3.347656 8.96875-3.296875 12.375.105468 3.40625 3.40625 3.453125 8.914063.109375 12.375l-6.242187 6.242188c-1.652344 1.660156-3.898438 2.59375-6.242188 2.585938zm24.964844-24.964844c-3.570313 0-6.789063-2.152344-8.152344-5.449219-1.367188-3.296875-.613281-7.09375 1.910156-9.617187l6.242188-6.242188c3.464844-3.34375 8.96875-3.296875 12.375.105469 3.40625 3.40625 3.453125 8.914062.105468 12.375l-6.238281 6.242187c-1.652343 1.660156-3.898437 2.59375-6.242187 2.585938zm24.972656-24.964844c-3.570312 0-6.789062-2.148438-8.152344-5.449219-1.367187-3.296875-.613281-7.09375 1.910156-9.617187l6.242188-6.242188c3.464844-3.34375 8.96875-3.296875 12.375.109375 3.40625 3.402344 3.453125 8.910157.109375 12.371094l-6.242187 6.242187c-1.65625 1.65625-3.902344 2.585938-6.242188 2.585938zm24.964844-24.972656c-3.570313 0-6.789063-2.152344-8.152344-5.449219-1.367188-3.296875-.613281-7.09375 1.910156-9.617187l6.242188-6.242188c3.464844-3.347656 8.96875-3.296875 12.375.105469 3.40625 3.40625 3.453125 8.914062.109375 12.375l-6.242188 6.25c-1.65625 1.652343-3.902343 2.582031-6.242187 2.578125zm0 0" fill="#fb7b76"/><path d="m258.21875 305.4375c-3.570312 0-6.789062-2.148438-8.152344-5.449219-1.367187-3.296875-.613281-7.09375 1.910156-9.617187l6.242188-6.25c2.230469-2.230469 5.484375-3.101563 8.53125-2.28125 3.046875.816406 5.425781 3.195312 6.238281 6.242187.816407 3.050781-.054687 6.300781-2.285156 8.53125l-6.242187 6.238281c-1.65625 1.65625-3.902344 2.585938-6.242188 2.585938zm24.972656-24.972656c-3.570312 0-6.785156-2.152344-8.152344-5.449219-1.367187-3.296875-.613281-7.09375 1.914063-9.617187l6.238281-6.242188c3.464844-3.34375 8.972656-3.296875 12.375.105469 3.40625 3.40625 3.453125 8.914062.109375 12.375l-6.242187 6.242187c-1.65625 1.65625-3.898438 2.585938-6.242188 2.585938zm24.964844-24.964844c-3.570312 0-6.789062-2.148438-8.152344-5.449219-1.367187-3.296875-.613281-7.09375 1.910156-9.617187l6.242188-6.242188c3.464844-3.34375 8.96875-3.296875 12.375.109375 3.40625 3.402344 3.453125 8.910157.109375 12.375l-6.242187 6.238281c-1.65625 1.65625-3.902344 2.585938-6.242188 2.585938zm24.964844-24.972656c-3.570313 0-6.789063-2.152344-8.152344-5.449219-1.367188-3.296875-.613281-7.09375 1.910156-9.617187l6.242188-6.242188c3.464844-3.34375 8.96875-3.296875 12.375.105469 3.40625 3.40625 3.453125 8.914062.109375 12.375l-6.242188 6.242187c-1.652343 1.660156-3.898437 2.59375-6.242187 2.585938zm24.972656-24.964844c-3.570312.003906-6.792969-2.144531-8.160156-5.445312-1.367188-3.296876-.613282-7.097657 1.910156-9.621094l6.25-6.242188c2.21875-2.292968 5.5-3.214844 8.585938-2.40625 3.085937.808594 5.496093 3.21875 6.304687 6.304688.808594 3.085937-.113281 6.367187-2.40625 8.582031l-6.242187 6.242187c-1.65625 1.65625-3.898438 2.585938-6.242188 2.585938zm0 0" fill="#fb7b76"/></svg>