<?xml version="1.0" encoding="utf-8"?>
<!-- Generator: Adobe Illustrator 22.1.0, SVG Export Plug-In . SVG Version: 6.00 Build 0)  -->
<svg xmlns="http://www.w3.org/2000/svg" xmlns:xlink="http://www.w3.org/1999/xlink" version="1.1" id="Layer_1" x="0px" y="0px" viewBox="0 0 512 512" style="enable-background:new 0 0 512 512;" xml:space="preserve" width="512" height="512">
<style type="text/css">
	.st0{fill:#FFA730;}
	.st1{fill:#E58D23;}
	.st2{fill:#BF6C0D;}
	.st3{fill:#A56021;}
	.st4{fill:#FFD551;}
	.st5{fill:#FFF4C1;}
	.st6{fill:#FFC34C;}
	.st7{fill:#FFEA63;}
	.st8{fill:#FCE575;}
	.st9{fill:#FFB74B;}
	.st10{fill:#8C4C17;}
	.st11{fill:#F9BB32;}
	.st12{fill:#FF4B34;}
	.st13{fill:#FF9079;}
	.st14{fill:#FFDF74;}
	.st15{fill:#FF624B;}
	.st16{fill:#CCC033;}
	.st17{fill:#EACF32;}
	.st18{fill:#FFEACF;}
	.st19{fill:#99AF17;}
	.st20{fill:#FFD59A;}
	.st21{fill:#FCDA4F;}
	.st22{fill:#FCF9DE;}
	.st23{fill:#DB9C2E;}
</style>
<g>
	<g>
		<g>
			<path class="st8" d="M46.833,282.567v148h60v-128c0-19.33,15.67-35,35-35h225c19.33,0,35,15.67,35,35v128h60v-148     c0-41.421-33.579-75-75-75h-265C80.412,207.567,46.833,241.146,46.833,282.567z"/>
		</g>
	</g>
	<g>
		<g>
			<g>
				<path class="st4" d="M76.833,302.567c0-41.421,33.579-75,75-75h265c8.901,0,17.437,1.56,25.358,4.406      c-13.713-14.996-33.436-24.406-55.358-24.406h-265c-41.421,0-75,33.579-75,75v148h30V302.567z"/>
			</g>
		</g>
	</g>
	<g>
		<g>
			<rect x="236.931" y="147.026" class="st15" width="38.138" height="110.855"/>
		</g>
	</g>
	<g>
		<g>
			<rect x="236.931" y="147.026" class="st12" width="17.655" height="110.855"/>
		</g>
	</g>
	<g>
		<g>
			<circle class="st15" cx="256" cy="125.959" r="63.527"/>
		</g>
	</g>
	<g>
		<g>
			<path class="st12" d="M214.984,125.959c0-31.244,22.555-57.219,52.271-62.532c-3.653-0.653-7.414-0.994-11.255-0.994     c-35.085,0-63.527,28.442-63.527,63.527s28.442,63.527,63.527,63.527c3.841,0,7.602-0.341,11.255-0.994     C237.54,183.178,214.984,157.203,214.984,125.959z"/>
		</g>
	</g>
	<g>
		<g>
			
				<ellipse transform="matrix(0.9239 -0.3827 0.3827 0.9239 -28.7156 107.5549)" class="st18" cx="256" cy="125.959" rx="48.989" ry="48.989"/>
		</g>
	</g>
	<g>
		<g>
			<path class="st14" d="M256,105.458c10.015,0,18.371,7.22,20.147,16.728c0.325,1.74,1.82,3.014,3.589,3.014h7.987     c2.231,0,3.917-1.982,3.609-4.192c-2.417-17.342-17.336-30.735-35.332-30.735s-32.915,13.393-35.332,30.735     c-0.308,2.21,1.377,4.192,3.609,4.192h7.987c1.77,0,3.264-1.274,3.589-3.014C237.629,112.678,245.985,105.458,256,105.458z"/>
		</g>
	</g>
	<g>
		<g>
			<circle class="st9" cx="256" cy="148.358" r="10.503"/>
		</g>
	</g>
	<g>
		<g>
			<path class="st12" d="M255.997,152.359c-0.609,0-1.229-0.14-1.809-0.435c-1.97-1-2.755-3.408-1.755-5.378l19.994-39.357     c1.001-1.969,3.409-2.755,5.378-1.754c1.97,1,2.755,3.408,1.755,5.378l-19.994,39.357     C258.86,151.559,257.455,152.359,255.997,152.359z"/>
		</g>
	</g>
	<g>
		<g>
			<path class="st20" d="M230.893,168.009c-9.9-11.202-15.909-25.925-15.909-42.05s6.009-30.848,15.909-42.05     c-14.293,8.566-23.882,24.209-23.882,42.05S216.6,159.443,230.893,168.009z"/>
		</g>
	</g>
	<g>
		<g>
			<path class="st22" d="M271.584,167.135c-1.586,0-3.087-0.95-3.714-2.513c-0.821-2.049,0.172-4.375,2.219-5.199     c0.307-0.126,20.337-8.505,22.199-26.914c0.222-2.198,2.19-3.802,4.382-3.577c2.198,0.222,3.8,2.184,3.577,4.382     c-2.359,23.327-26.164,33.126-27.176,33.532C272.583,167.042,272.079,167.135,271.584,167.135z"/>
		</g>
	</g>
	<g>
		<g>
			<path class="st13" d="M311.431,122.573c-2.209,0-4-1.791-4-4c0-22.428-18.556-32.029-18.743-32.123     c-1.973-0.993-2.768-3.398-1.774-5.371c0.994-1.973,3.398-2.768,5.372-1.774c0.945,0.476,23.146,11.966,23.146,39.269     C315.431,120.783,313.64,122.573,311.431,122.573z"/>
		</g>
	</g>
	<g>
		<g>
			<path class="st15" d="M178.833,283.216h-13c-4.418,0-8-3.582-8-8v-75.692c0-4.418,3.582-8,8-8h13c4.418,0,8,3.582,8,8v75.692     C186.833,279.634,183.252,283.216,178.833,283.216z"/>
		</g>
	</g>
	<g>
		<g>
			<path class="st15" d="M342.833,283.216h-13c-4.418,0-8-3.582-8-8v-75.692c0-4.418,3.582-8,8-8h13c4.418,0,8,3.582,8,8v75.692     C350.833,279.634,347.252,283.216,342.833,283.216z"/>
		</g>
	</g>
	<g>
		<g>
			<path class="st15" d="M123.667,449.567h-89c-2.761,0-5-2.239-5-5v-26c0-2.761,2.239-5,5-5h89c2.761,0,5,2.239,5,5v26     C128.667,447.329,126.428,449.567,123.667,449.567z"/>
		</g>
	</g>
	<g>
		<g>
			<path class="st15" d="M477.333,449.567h-89c-2.761,0-5-2.239-5-5v-26c0-2.761,2.239-5,5-5h89c2.761,0,5,2.239,5,5v26     C482.333,447.329,480.095,449.567,477.333,449.567z"/>
		</g>
	</g>
	<g>
		<g>
			<path class="st13" d="M291.252,277.026h-70.504c-5.523,0-10-4.477-10-10v-58.852c0-5.523,4.477-10,10-10h70.504     c5.523,0,10,4.477,10,10v58.852C301.252,272.549,296.775,277.026,291.252,277.026z"/>
		</g>
	</g>
	<g>
		<g>
			<path class="st15" d="M230.748,228.174c0-5.523,4.477-10,10-10h60.504v-10c0-5.523-4.477-10-10-10h-70.504     c-5.523,0-10,4.477-10,10v58.852c0,5.523,4.477,10,10,10h10V228.174z"/>
		</g>
	</g>
	<g>
		<g>
			<path class="st12" d="M171.833,275.216v-75.692c0-4.25,3.316-7.715,7.5-7.975c-0.166-0.01-0.331-0.025-0.5-0.025h-13     c-4.418,0-8,3.582-8,8v75.692c0,4.418,3.582,8,8,8h13c0.169,0,0.334-0.015,0.5-0.025     C175.149,282.931,171.833,279.465,171.833,275.216z"/>
		</g>
	</g>
	<g>
		<g>
			<path class="st12" d="M335.833,275.216v-75.692c0-4.25,3.316-7.715,7.5-7.975c-0.166-0.01-0.331-0.025-0.5-0.025h-13     c-4.418,0-8,3.582-8,8v75.692c0,4.418,3.582,8,8,8h13c0.169,0,0.334-0.015,0.5-0.025     C339.149,282.931,335.833,279.465,335.833,275.216z"/>
		</g>
	</g>
	<g>
		<g>
			<path class="st12" d="M59.667,444.567v-26c0-2.761,2.239-5,5-5h-30c-2.761,0-5,2.239-5,5v26c0,2.761,2.239,5,5,5h30     C61.905,449.567,59.667,447.329,59.667,444.567z"/>
		</g>
	</g>
	<g>
		<g>
			<path class="st12" d="M413.333,444.567v-26c0-2.761,2.239-5,5-5h-30c-2.761,0-5,2.239-5,5v26c0,2.761,2.239,5,5,5h30     C415.572,449.567,413.333,447.329,413.333,444.567z"/>
		</g>
	</g>
	<g>
		<g>
			<path class="st5" d="M444.5,316.151c-3.313,0-6-2.686-6-6v-15.913c0-3.314,2.687-6,6-6s6,2.686,6,6v15.913     C450.5,313.465,447.813,316.151,444.5,316.151z"/>
		</g>
	</g>
	<g>
		<g>
			<path class="st5" d="M444.5,404.026c-3.313,0-6-2.686-6-6v-69.18c0-3.314,2.687-6,6-6s6,2.686,6,6v69.18     C450.5,401.34,447.813,404.026,444.5,404.026z"/>
		</g>
	</g>
	<g>
		<g>
			<path class="st18" d="M283.926,267.36c-3.313,0-6-2.686-6-6v-30.337c0-3.314,2.687-6,6-6s6,2.686,6,6v30.337     C289.926,264.674,287.239,267.36,283.926,267.36z"/>
		</g>
	</g>
	<g>
		<g>
			<circle class="st4" cx="412.5" cy="255.254" r="15"/>
		</g>
	</g>
</g>
</svg>
