<svg height="512pt" viewBox="0 0 512 512" width="512pt" xmlns="http://www.w3.org/2000/svg"><path d="m149.832031 109.832031h212.335938v292.335938h-212.335938zm0 0" fill="#edd4c2"/><path d="m0 0 149.832031 109.832031v292.335938l-149.832031 109.832031zm0 0" fill="#ffefe4"/><path d="m0 285.328125 149.832031-10.515625v25.242188l-149.832031 29.480468zm0 0" fill="#d476e2"/><path d="m102.054688 137.113281-56.917969-20.578125c-1.789063-.648437-3.679688.675782-3.679688 2.582032v78.894531c0 1.46875 1.160157 2.679687 2.628907 2.746093l57.175781 2.484376c1.175781.054687 2.160156-.886719 2.160156-2.066407v-62.117187c0-.871094-.546875-1.648438-1.367187-1.945313zm0 0" fill="#d476e2"/><path d="m51.457031 193.066406v-66.378906l45.261719 15.714844v54.496094zm0 0" fill="#a1f1fc"/><path d="m512 0-149.832031 109.832031v292.335938l149.832031 109.832031zm0 0" fill="#ffefe4"/><path d="m362.167969 109.832031h-212.335938l-149.832031-109.832031h512zm0 0" fill="#f7e0d0"/><path d="m362.167969 402.167969h-212.335938l-149.832031 109.832031h512zm0 0" fill="#f7e0d0"/><path d="m187.871094 154.957031h136.253906v247.210938h-136.253906zm0 0" fill="#6770e6"/><g fill="#5861c7"><path d="m249.355469 169.765625v136.855469h-46.671875v-136.855469zm0 0"/><path d="m309.316406 169.765625v136.855469h-46.671875v-136.855469zm0 0"/><path d="m202.683594 387.359375v-67.394531h46.671875v67.394531zm0 0"/><path d="m262.644531 387.359375v-67.394531h46.671875v67.394531zm0 0"/></g><path d="m212.273438 297.023438c0 5.296874-4.296876 9.589843-9.589844 9.589843-5.296875 0-9.589844-4.292969-9.589844-9.589843 0-5.296876 4.292969-9.589844 9.589844-9.589844 5.292968 0 9.589844 4.292968 9.589844 9.589844zm0 0" fill="#8f95e6"/><path d="m277.296875 48.914062h-42.59375v-3.890624c0-5.015626 4.070313-9.085938 9.085937-9.085938h24.421876c5.019531 0 9.085937 4.070312 9.085937 9.085938zm0 0" fill="#5861c7"/><path d="m278.621094 48.914062h-45.242188c-8.371094 0-15.160156 6.789063-15.160156 15.160157 0 1.3125 1.0625 2.375 2.375 2.375h70.816406c1.308594 0 2.375-1.0625 2.375-2.375-.003906-8.371094-6.789062-15.160157-15.164062-15.160157zm0 0" fill="#6770e6"/><path d="m271.460938 78.429688h-30.921876c-6.613281 0-11.980468-5.363282-11.980468-11.980469h54.882812c0 6.617187-5.367187 11.980469-11.980468 11.980469zm0 0" fill="#a1f1fc"/><path d="m149.832031 402.167969-149.832031 109.832031v-182.464844l149.832031-29.480468zm0 0" fill="#b665c2"/><path d="m26.972656 324.226562-26.972656 5.308594v182.464844l26.972656-19.773438zm0 0" fill="#c970d6"/><path d="m26.972656 492.226562 28.972656-21.234374v-152.464844l-28.972656 5.699218zm0 0" fill="#b665c2"/><path d="m55.945312 470.992188 26.96875-19.773438v-138l-26.96875 5.308594zm0 0" fill="#c970d6"/><path d="m82.914062 451.21875 24.972657-18.304688v-124.609374l-24.972657 4.914062zm0 0" fill="#b665c2"/><path d="m107.886719 432.914062 22.972656-16.839843v-112.289063l-22.972656 4.519532zm0 0" fill="#c970d6"/><path d="m130.859375 416.074219 18.972656-13.90625v-102.113281l-18.972656 3.730468zm0 0" fill="#b665c2"/><path d="m149.832031 274.8125h38.039063v25.242188h-38.039063zm0 0" fill="#c970d6"/><path d="m168.851562 300.054688h19.019532v102.113281h-19.019532zm0 0" fill="#ac60b8"/><path d="m149.832031 300.054688h19.019531v102.113281h-19.019531zm0 0" fill="#bd69c9"/><path d="m512 285.328125-149.832031-10.515625v25.242188l149.832031 29.480468zm0 0" fill="#d476e2"/><path d="m362.167969 402.167969 149.832031 109.832031v-182.464844l-149.832031-29.480468zm0 0" fill="#b665c2"/><path d="m485.027344 324.226562 26.972656 5.308594v182.464844l-26.972656-19.773438zm0 0" fill="#c970d6"/><path d="m485.027344 492.226562-28.972656-21.234374v-152.464844l28.972656 5.699218zm0 0" fill="#b665c2"/><path d="m456.054688 470.992188-26.96875-19.773438v-138l26.96875 5.308594zm0 0" fill="#c970d6"/><path d="m429.085938 451.21875-24.972657-18.304688v-124.609374l24.972657 4.914062zm0 0" fill="#b665c2"/><path d="m404.113281 432.914062-22.972656-16.839843v-112.289063l22.972656 4.519532zm0 0" fill="#c970d6"/><path d="m381.140625 416.074219-18.972656-13.90625v-102.113281l18.972656 3.730468zm0 0" fill="#b665c2"/><path d="m362.167969 300.054688h-38.039063v-25.242188h38.039063zm0 0" fill="#c970d6"/><path d="m343.148438 402.167969h-19.019532v-102.113281h19.019532zm0 0" fill="#ac60b8"/><path d="m362.167969 402.167969h-19.019531v-102.113281h19.019531zm0 0" fill="#bd69c9"/><path d="m374.125 148.601562v67.796876c0 1.386718 1.238281 2.441406 2.605469 2.214843l34.128906-5.597656c.90625-.148437 1.570313-.929687 1.570313-1.851563v-83.371093c0-1.308594-1.417969-2.121094-2.546876-1.457031l-34.652343 20.332031c-.683594.402343-1.105469 1.136719-1.105469 1.933593zm0 0" fill="#d476e2"/><path d="m425.9375 167.324219v68.984375c0 2.082031 1.71875 3.753906 3.796875 3.695312l43.8125-1.234375c1.242187-.035156 2.230469-1.050781 2.230469-2.292969v-88.222656c0-1.625-1.640625-2.734375-3.148438-2.132812l-44.371094 17.773437c-1.402343.5625-2.320312 1.917969-2.320312 3.429688zm0 0" fill="#6770e6"/><path d="m378.128906 150.710938v61.890624l27.972656-5.332031v-70.117187zm0 0" fill="#69ebfc"/><path d="m431.007812 168.941406v65.253906l38.398438-2.125v-77.003906zm0 0" fill="#69ebfc"/><path d="m492.902344 14 19.097656-14h-512l19.097656 14zm0 0" fill="#ffefe4"/><path d="m492.902344 498 19.097656 14h-512l19.097656-14zm0 0" fill="#edd4c2"/></svg>