<svg height="512pt" viewBox="0 -53 512 512" width="512pt" xmlns="http://www.w3.org/2000/svg"><path d="m360.867188 148.097656c-4.140626 0-7.5 3.359375-7.5 7.5v46.371094c0 4.144531 3.359374 7.5 7.5 7.5 4.144531 0 7.5-3.355469 7.5-7.5v-46.371094c0-4.140625-3.355469-7.5-7.5-7.5zm0 0" fill="#3be3eb"/><path d="m354.382812 377.539062c-8.535156 0-15.453124-6.917968-15.453124-15.453124v-132.699219h30.90625v132.699219c0 8.535156-6.917969 15.453124-15.453126 15.453124zm0 0" fill="#685c79"/><path d="m453.28125 377.539062c-8.535156 0-15.453125-6.917968-15.453125-15.453124v-132.699219h30.902344v132.699219c0 8.535156-6.917969 15.453124-15.449219 15.453124zm0 0" fill="#685c79"/><path d="m204.324219 224.386719h-132.5625c-31.097657 0-56.308594-25.210938-56.308594-56.308594v-111.765625c0-31.101562 25.210937-56.3125 56.308594-56.3125h132.5625c31.101562 0 56.3125 25.210938 56.3125 56.3125v111.765625c0 31.097656-25.210938 56.308594-56.3125 56.308594zm0 0" fill="#e62753"/><path d="m204.820312 0h-30.90625c30.828126 0 55.816407 25.433594 55.816407 56.808594v110.769531c0 31.375-24.988281 56.808594-55.816407 56.808594h30.90625c30.824219 0 55.816407-25.433594 55.816407-56.808594v-110.769531c0-31.375-24.992188-56.808594-55.816407-56.808594zm0 0" fill="#d6244d"/><path d="m55.628906 377.539062c-8.53125 0-15.453125-6.917968-15.453125-15.453124v-20.363282h30.90625v20.363282c0 8.535156-6.917969 15.453124-15.453125 15.453124zm0 0" fill="#685c79"/><path d="m220.460938 377.539062c-8.535157 0-15.453126-6.917968-15.453126-15.453124v-20.363282h30.902344v20.363282c0 8.535156-6.917968 15.453124-15.449218 15.453124zm0 0" fill="#685c79"/><path d="m249.300781 344.171875h-222.511719c-14.796874 0-26.789062-11.992187-26.789062-26.789063v-70.078124c0-14.792969 11.992188-26.785157 26.789062-26.785157h222.511719c14.792969 0 26.789063 11.992188 26.789063 26.785157v70.078124c0 14.796876-11.996094 26.789063-26.789063 26.789063zm0 0" fill="#ff2c5c"/><path d="m249.304688 220.519531h-30.90625c14.792968 0 26.785156 11.992188 26.785156 26.789063v70.074218c0 14.796876-11.992188 26.789063-26.785156 26.789063h30.90625c14.792968 0 26.785156-11.992187 26.785156-26.789063v-70.074218c0-14.796875-11.992188-26.789063-26.785156-26.789063zm0 0" fill="#e62753"/><path d="m496.546875 406h-481.09375c-8.535156 0-15.453125-6.917969-15.453125-15.453125v-.007813c0-8.53125 6.917969-15.453124 15.453125-15.453124h481.09375c8.53125 0 15.453125 6.917968 15.453125 15.453124v.007813c0 8.535156-6.917969 15.453125-15.453125 15.453125zm0 0" fill="#b0693c"/><path d="m496.546875 375.085938h-30.90625c8.535156 0 15.453125 6.921874 15.453125 15.457031 0 8.535156-6.917969 15.457031-15.453125 15.457031h30.90625c8.535156 0 15.453125-6.921875 15.453125-15.457031 0-8.535157-6.917969-15.457031-15.453125-15.457031zm0 0" fill="#9c5d35"/><path d="m496.546875 232.875h-185.429687c-8.535157 0-15.457032-6.917969-15.457032-15.453125v-.003906c0-8.535157 6.921875-15.457031 15.457032-15.457031h185.429687c8.53125 0 15.453125 6.921874 15.453125 15.457031v.003906c0 8.535156-6.917969 15.453125-15.453125 15.453125zm0 0" fill="#ffd659"/><path d="m496.546875 201.960938h-30.90625c8.535156 0 15.453125 6.921874 15.453125 15.457031 0 8.535156-6.917969 15.457031-15.453125 15.457031h30.90625c8.535156 0 15.453125-6.917969 15.453125-15.457031 0-8.535157-6.917969-15.457031-15.453125-15.457031zm0 0" fill="#ffbd54"/><path d="m362.464844 160.75h-2.773438c-12.792968 0-23.167968-10.371094-23.167968-23.164062v-39.816407c0-2.207031 1.792968-4 4-4h41.105468c2.210938 0 4 1.792969 4 4v39.816407c.003906 12.792968-10.371094 23.164062-23.164062 23.164062zm0 0" fill="#b5fcff"/><path d="m464.609375 201.96875h-53.566406c-2.277344 0-4.121094-1.84375-4.121094-4.121094v-32.976562c0-2.273438 1.84375-4.117188 4.121094-4.117188h53.566406c2.277344 0 4.121094 1.84375 4.121094 4.117188v32.976562c0 2.277344-1.84375 4.121094-4.121094 4.121094zm0 0" fill="#ff2c5c"/><path d="m464.613281 160.75h-30.90625c2.277344 0 4.121094 1.847656 4.121094 4.121094v32.976562c0 2.277344-1.84375 4.121094-4.121094 4.121094h30.90625c2.273438 0 4.121094-1.84375 4.121094-4.121094v-32.976562c-.003906-2.273438-1.847656-4.121094-4.121094-4.121094zm0 0" fill="#e62753"/><g fill="#ffd659"><path d="m153.496094 102.757812h-7.953125v-7.957031c0-4.140625-3.355469-7.5-7.5-7.5-4.140625 0-7.5 3.359375-7.5 7.5v7.957031h-7.953125c-4.140625 0-7.5 3.359376-7.5 7.5 0 4.144532 3.359375 7.5 7.5 7.5h7.953125v7.957032c0 4.144531 3.359375 7.5 7.5 7.5 4.144531 0 7.5-3.355469 7.5-7.5v-7.957032h7.953125c4.144531 0 7.5-3.355468 7.5-7.5 0-4.140624-3.355469-7.5-7.5-7.5zm0 0"/><path d="m89.625 41.964844h-7.953125v-7.957032c0-4.144531-3.355469-7.5-7.5-7.5-4.140625 0-7.5 3.355469-7.5 7.5v7.957032h-7.953125c-4.140625 0-7.5 3.355468-7.5 7.5 0 4.140625 3.359375 7.5 7.5 7.5h7.953125v7.953125c0 4.144531 3.359375 7.5 7.5 7.5 4.144531 0 7.5-3.355469 7.5-7.5v-7.953125h7.953125c4.144531 0 7.5-3.359375 7.5-7.5 0-4.144532-3.355469-7.5-7.5-7.5zm0 0"/><path d="m185.433594 56.964844h7.953125v7.953125c0 4.144531 3.355469 7.5 7.5 7.5 4.140625 0 7.5-3.355469 7.5-7.5v-7.953125h7.953125c4.140625 0 7.5-3.359375 7.5-7.5 0-4.144532-3.359375-7.5-7.5-7.5h-7.953125v-7.957032c0-4.144531-3.359375-7.5-7.5-7.5-4.144531 0-7.5 3.355469-7.5 7.5v7.957032h-7.953125c-4.144532 0-7.5 3.355468-7.5 7.5 0 4.140625 3.355468 7.5 7.5 7.5zm0 0"/><path d="m89.625 161.496094h-7.953125v-7.957032c0-4.144531-3.355469-7.5-7.5-7.5-4.140625 0-7.5 3.355469-7.5 7.5v7.957032h-7.953125c-4.140625 0-7.5 3.355468-7.5 7.5 0 4.140625 3.359375 7.5 7.5 7.5h7.953125v7.957031c0 4.140625 3.359375 7.5 7.5 7.5 4.144531 0 7.5-3.359375 7.5-7.5v-7.957031h7.953125c4.144531 0 7.5-3.359375 7.5-7.5 0-4.144532-3.355469-7.5-7.5-7.5zm0 0"/><path d="m216.339844 161.496094h-7.953125v-7.957032c0-4.144531-3.359375-7.5-7.5-7.5-4.144531 0-7.5 3.355469-7.5 7.5v7.957032h-7.953125c-4.144532 0-7.5 3.355468-7.5 7.5 0 4.140625 3.355468 7.5 7.5 7.5h7.953125v7.957031c0 4.140625 3.355469 7.5 7.5 7.5 4.140625 0 7.5-3.359375 7.5-7.5v-7.957031h7.953125c4.140625 0 7.5-3.359375 7.5-7.5 0-4.144532-3.359375-7.5-7.5-7.5zm0 0"/></g></svg>