<svg id="Capa_1" enable-background="new 0 0 512 512" height="512" viewBox="0 0 512 512" width="512" xmlns="http://www.w3.org/2000/svg"><g><g><path d="m137.038 163.478c6.348-25.316 19.396-48.326 38.092-67.022 56.358-56.358 147.876-56.541 204.009-.408s55.949 147.651-.408 204.009c-18.697 18.697-41.707 31.744-67.023 38.092z" fill="#ffbdbc"/></g><g fill="#020288"><path d="m416.914 338.24c77.413-77.413 77.596-203.189.409-280.376-37.323-37.322-86.961-57.864-139.806-57.864-.104 0-.209 0-.313 0-52.951.081-102.762 20.776-140.257 58.272-28.887 28.887-47.954 65.315-55.139 105.347-.783 4.364-1.442 8.996-1.957 13.767-1.212 11.233-1.478 22.582-.79 33.729.981 15.9 6.008 42.437 12.806 67.604 6.751 24.992-.415 51.876-18.701 70.162l-33.424 33.424c-1.875 1.875-2.929 4.419-2.929 7.071s1.054 5.196 2.929 7.071l38.997 38.996c1.953 1.953 4.512 2.929 7.071 2.929s5.119-.977 7.071-2.929l33.423-33.423c18.286-18.286 45.173-25.45 70.162-18.701 25.167 6.798 51.703 11.825 67.604 12.806 11.151.688 22.5.422 33.729-.79.003 0 .005-.001.008-.001 4.767-.515 9.396-1.173 13.759-1.956 40.032-7.184 76.46-26.25 105.348-55.138zm-215.232 25.772c-31.883-8.611-66.186.533-89.52 23.866l-26.352 26.352-24.854-24.854 26.353-26.353c23.334-23.333 32.479-57.636 23.867-89.52-6.377-23.609-11.26-49.177-12.152-63.622-.171-2.777-.277-5.568-.317-8.368l174.964 174.967c-2.799-.04-5.591-.146-8.369-.317-14.444-.891-40.011-5.774-63.62-12.151zm98.679 10.873-200.059-200.06c.351-2.641.749-5.208 1.192-7.672 6.46-35.993 23.609-68.753 49.595-94.738 33.726-33.727 78.525-52.342 126.145-52.415h.281c47.5 0 92.123 18.464 125.665 52.006 69.39 69.39 69.207 182.478-.409 252.093-25.985 25.985-58.745 43.135-94.738 49.594-2.464.442-5.032.841-7.672 1.192z"/><path d="m409.354 380.335c-36.3 0-65.833 29.532-65.833 65.832s29.532 65.833 65.833 65.833 65.833-29.532 65.833-65.833c0-36.299-29.533-65.832-65.833-65.832zm0 111.665c-25.272 0-45.833-20.561-45.833-45.833s20.561-45.832 45.833-45.832 45.833 20.56 45.833 45.832-20.561 45.833-45.833 45.833z"/></g></g></svg>