<svg id="Capa_1" enable-background="new 0 0 512.08 512.08" height="512" viewBox="0 0 512.08 512.08" width="512" xmlns="http://www.w3.org/2000/svg"><g><path d="m98.192 298.811c4.142 0 7.5-3.357 7.5-7.5s-3.358-7.5-7.5-7.5h-83.192v-10.895c0-9.261 7.534-16.795 16.795-16.795h66.397c4.142 0 7.5-3.357 7.5-7.5s-3.358-7.5-7.5-7.5h-66.397c-17.532 0-31.795 14.263-31.795 31.795v175.789c0 4.143 3.358 7.5 7.5 7.5s7.5-3.357 7.5-7.5v-20.602h83.192c4.142 0 7.5-3.357 7.5-7.5s-3.358-7.5-7.5-7.5h-83.192v-28.098h83.192c4.142 0 7.5-3.357 7.5-7.5s-3.358-7.5-7.5-7.5h-83.192v-28.098h83.192c4.142 0 7.5-3.357 7.5-7.5s-3.358-7.5-7.5-7.5h-83.192v-28.098h83.192z" fill="#ff9100"/><g><path d="m301.097 154.874-97.672-97.433c-2.089-2.084-5.472-2.084-7.561 0l-97.672 97.433v13.795h202.905z" fill="#f5d573"/><g><path d="m289.725 252.469h74.094c14.772 0 28.221 8.516 34.537 21.869l50.851 107.499c6.317 13.353 19.765 21.869 34.537 21.869h23.244c2.812 0 5.091 2.279 5.091 5.091v42.317c0 2.812-2.279 5.091-5.091 5.091h-74.516c-14.95 0-28.526-8.719-34.744-22.314l-47.508-103.866c-6.218-13.595-19.795-22.314-34.744-22.314h-25.751z" fill="#ff9100"/></g><g><path d="m512.08 435.19v15.922c0 2.812-2.279 5.091-5.091 5.091h-74.516c-14.948 0-28.521-8.716-34.743-22.31l-47.512-103.872c-6.211-13.594-19.795-22.31-34.743-22.31h-25.75v-16.312c5.845.132 28.153.387 29.09.417 18.705.713 30.324 1.762 42.665 16.699 11.394 13.818 16.119 31.668 23.45 47.685 9.348 20.436 18.695 36.233 28.043 56.669 6.211 13.594 19.795 22.32 34.743 22.32h64.364z" fill="#f77e00"/></g><g><path d="m145.333 455.322h-42.05c-2.812 0-5.091-2.279-5.091-5.091v-121.252h52.232v121.252c.001 2.812-2.279 5.091-5.091 5.091z" fill="#ff9100"/></g><g><path d="m296.006 455.322h-42.05c-2.812 0-5.091-2.279-5.091-5.091v-121.252h52.232v121.252c0 2.812-2.279 5.091-5.091 5.091z" fill="#ff9100"/></g><g><path d="m296.006 455.322h-17.653v-126.343h22.745v121.252c-.001 2.812-2.28 5.091-5.092 5.091z" fill="#f77e00"/></g><g><path d="m145.333 455.322h-17.653v-126.343h22.745v121.252c0 2.812-2.28 5.091-5.092 5.091z" fill="#f77e00"/></g><g><path d="m98.192 154.874h202.905v184.948h-202.905z" fill="#51be60"/></g><g><path d="m278.353 154.874h22.745v184.948h-22.745z" fill="#45ad4f"/></g><g><path d="m301.098 154.871h-22.748l-90.075-89.861 7.593-7.573c2.089-2.084 5.471-2.084 7.561.001z" fill="#f7c22c"/></g><g><circle cx="199.645" cy="247.349" fill="#efe2dd" r="39.7"/></g><g><path d="m239.34 247.349c0 21.923-17.769 39.702-39.692 39.702-14.398 0-26.994-7.657-33.959-19.123 6.415 4.44 14.195 7.046 22.585 7.046 21.923 0 39.702-17.779 39.702-39.702 0-7.525-2.098-14.571-5.743-20.569 10.336 7.159 17.107 19.114 17.107 32.646z" fill="#e1d3ce"/></g></g></g></svg>