<svg id="Capa_1" enable-background="new 0 0 512 512" height="512" viewBox="0 0 512 512" width="512" xmlns="http://www.w3.org/2000/svg"><g id="Wifi"><path d="m448 192c0 17.6-7.039 33.6-18.881 45.119l-128 128c-8 8-17.92 14.08-29.119 16.641-5.119 1.6-10.561 2.24-16 2.24s-10.881-.641-16-2.24c-11.199-2.561-21.119-8.641-29.119-16.641l-128-128c-11.842-11.519-18.881-27.519-18.881-45.119s7.039-33.6 18.881-45.121l128-128c11.519-11.84 27.519-18.879 45.119-18.879s33.6 7.039 45.119 18.879l128 128c11.842 11.521 18.881 27.521 18.881 45.121z" fill="#4de600"/><g fill="#c8fa64"><path d="m256 96c-44.16 0-84.16 17.92-113.279 46.719l22.719 22.721c23.361-23.04 55.361-37.44 90.56-37.44s67.199 14.4 90.561 37.439l22.719-22.721c-29.12-28.798-69.12-46.718-113.28-46.718z"/><path d="m142.72 142.72 22.72 22.72"/><path d="m256 160c-26.24 0-50.561 10.879-67.84 28.16l22.721 22.719c11.519-11.84 27.519-18.879 45.119-18.879s33.6 7.039 45.119 18.879l22.721-22.719c-17.279-17.281-41.6-28.16-67.84-28.16z"/><circle cx="256" cy="256" r="32"/></g><path d="m272 320v61.76c-5.119 1.6-10.561 2.24-16 2.24s-10.881-.641-16-2.24v-61.76z" fill="#0c0"/><path d="m272 381.76v130.24h-32v-130.24c5.119 1.6 10.561 2.24 16 2.24s10.881-.641 16-2.24z" fill="#c8fa64"/></g></svg>